<svg xmlns="http://www.w3.org/2000/svg" width="500" height="500" viewBox="0 0 500 500">
<g>
<path d="M 0.00 0.00 L 500.00 0.00 L 500.00 500.00 L 0.00 500.00 ZM 97.23 430.75 C98.52,432.33 101.24,432.36 102.80,430.80 C103.50,430.10 104.00,426.76 104.00,422.80 C104.00,416.02 104.01,416.00 106.80,416.00 C110.89,416.00 112.00,417.72 112.00,424.08 C112.00,430.05 113.43,432.46 116.59,431.83 C118.55,431.45 119.32,430.13 121.06,424.25 C122.07,420.84 122.07,419.16 121.06,415.75 C118.93,408.52 118.93,408.53 111.15,408.21 L 104.00 407.91 L 104.00 400.00 L 110.80 400.00 C114.76,400.00 118.10,399.50 118.80,398.80 C119.62,397.98 120.00,393.24 120.00,384.00 C120.00,374.76 120.38,370.02 121.20,369.20 C121.94,368.46 125.53,368.00 130.50,368.00 C138.82,368.00 141.00,367.14 141.00,363.86 C141.00,362.64 141.95,362.04 144.25,361.81 C147.26,361.52 147.52,361.20 147.83,357.50 C148.02,355.17 147.21,350.65 145.88,346.67 C143.39,339.20 143.83,336.98 148.00,336.00 C149.27,335.70 150.69,334.68 151.16,333.73 C151.62,332.78 152.39,331.21 152.86,330.25 C154.21,327.48 157.00,327.44 157.02,330.18 C157.02,331.45 157.42,333.11 157.89,333.86 C159.05,335.69 162.73,334.44 163.52,331.95 C163.86,330.88 165.00,329.53 166.07,328.96 C167.69,328.10 168.00,328.26 168.00,330.01 C168.00,332.13 165.50,334.99 160.68,338.39 C159.02,339.56 157.61,341.84 156.98,344.39 C156.41,346.65 155.51,349.28 154.98,350.24 C153.37,353.09 153.75,362.69 155.50,363.36 C156.32,363.68 157.00,364.82 157.00,365.90 C157.00,366.97 158.12,368.74 159.50,369.82 C162.57,372.24 162.64,373.24 159.81,374.51 C158.61,375.06 157.43,376.11 157.19,376.86 C156.84,377.96 157.94,378.09 162.88,377.51 C168.50,376.86 169.00,376.96 169.00,378.73 C169.00,380.42 169.78,380.67 175.39,380.75 C179.84,380.82 183.08,381.51 186.06,383.03 C189.81,384.94 190.82,385.07 194.20,384.06 C197.58,383.05 198.37,383.14 200.54,384.85 C203.03,386.82 205.98,387.16 222.16,387.40 C226.30,387.46 228.59,387.88 228.21,388.50 C227.88,389.05 228.46,388.83 229.50,388.00 C230.76,387.00 231.12,386.94 230.60,387.81 C229.52,389.60 263.51,388.65 265.70,386.83 C266.50,386.17 270.39,385.53 274.33,385.43 C278.30,385.32 283.16,384.51 285.22,383.62 C287.26,382.73 291.24,382.00 294.06,382.00 C297.67,382.00 299.94,381.41 301.73,380.00 C303.13,378.90 305.19,378.00 306.31,378.00 C307.43,378.00 309.19,377.23 310.23,376.29 C311.27,375.35 313.78,374.51 315.81,374.41 C317.84,374.32 320.33,374.19 321.34,374.12 C322.34,374.06 324.57,372.42 326.27,370.50 C327.97,368.58 330.17,367.00 331.16,367.00 C332.15,367.00 333.69,365.88 334.59,364.50 C335.49,363.12 337.02,362.00 337.99,362.00 C338.96,362.00 340.35,361.28 341.09,360.40 C341.82,359.51 343.50,358.38 344.81,357.88 C346.72,357.16 347.09,356.48 346.60,354.54 C346.16,352.81 346.54,351.73 347.92,350.77 C348.99,350.02 350.41,348.20 351.09,346.71 C351.77,345.22 352.67,344.00 353.09,344.00 C354.91,344.00 356.81,340.78 357.42,336.65 C357.90,333.47 358.63,332.07 359.99,331.71 C361.44,331.33 361.96,331.82 362.19,333.78 C362.59,337.12 365.00,337.98 365.00,334.78 C365.00,333.47 364.53,331.93 363.95,331.35 C361.87,329.27 360.20,321.64 361.24,319.00 C362.71,315.28 362.99,311.70 361.92,310.40 C361.40,309.77 360.88,307.13 360.76,304.53 C360.61,301.04 361.01,299.47 362.28,298.54 C364.70,296.76 364.42,295.00 361.70,295.00 C358.98,295.00 357.00,293.27 357.00,290.91 C357.00,289.97 355.56,287.70 353.79,285.86 C352.03,284.01 350.72,282.05 350.88,281.50 C351.04,280.95 350.83,280.83 350.43,281.24 C349.19,282.48 347.17,280.06 347.72,277.98 C348.00,276.91 347.95,275.31 347.62,274.44 C347.06,272.99 346.86,272.99 345.43,274.43 C343.53,276.33 342.38,276.42 341.32,274.75 C340.54,273.52 340.37,272.98 340.12,270.98 C340.06,270.42 338.88,269.44 337.50,268.82 C334.61,267.50 334.20,266.16 336.75,266.36 C339.61,266.59 338.95,262.77 336.05,262.33 C334.71,262.12 332.91,261.35 332.05,260.61 C331.20,259.87 329.15,258.83 327.50,258.30 C325.85,257.77 324.50,256.70 324.50,255.92 C324.50,253.95 328.81,253.53 330.83,255.30 C333.78,257.89 336.63,258.17 340.12,256.22 C341.95,255.20 343.69,253.31 343.99,252.02 C344.54,249.72 345.79,248.68 349.27,247.59 C350.25,247.29 351.29,246.25 351.59,245.27 C352.84,241.24 353.84,240.49 358.50,240.00 C361.73,239.66 363.58,238.93 364.15,237.75 C364.62,236.79 365.38,235.21 365.85,234.25 C366.37,233.18 368.09,232.38 370.28,232.19 C375.56,231.74 376.11,230.46 375.79,219.46 C375.54,211.01 375.24,209.56 373.55,208.61 C372.48,208.00 370.84,206.61 369.91,205.53 C368.48,203.86 367.99,203.76 366.61,204.90 C365.73,205.64 365.00,206.88 365.00,207.65 C365.00,208.42 363.73,209.30 362.18,209.61 C360.16,210.02 359.38,210.76 359.43,212.21 C359.47,213.32 358.71,214.63 357.75,215.12 C356.79,215.60 355.21,216.38 354.25,216.85 C352.95,217.48 352.37,219.33 352.00,224.00 C351.63,228.67 351.05,230.52 349.75,231.15 C348.79,231.62 347.22,232.38 346.27,232.84 C345.32,233.31 344.30,234.73 344.00,236.00 C342.79,241.13 337.21,241.13 336.00,236.00 C335.70,234.73 334.68,233.31 333.73,232.84 C332.78,232.38 331.21,231.62 330.25,231.15 C329.29,230.68 328.36,229.32 328.18,228.14 C327.92,226.42 328.49,225.85 330.96,225.36 C336.52,224.25 337.33,218.68 332.14,217.26 C330.69,216.86 322.35,216.53 313.62,216.52 C312.51,216.52 311.49,216.51 310.53,216.51 C301.69,216.49 298.91,216.48 297.39,217.86 C296.53,218.63 296.07,219.85 295.15,221.75 C294.47,223.12 292.77,223.56 287.21,223.79 L 280.13 224.08 L 279.82 220.89 C279.64,219.12 278.68,217.21 277.66,216.60 C276.15,215.70 275.53,215.91 274.28,217.75 C273.44,218.99 271.91,220.00 270.88,220.00 C268.55,220.00 268.36,223.22 270.58,225.07 C271.82,226.10 272.57,226.12 274.07,225.19 C275.12,224.54 276.88,224.00 277.99,224.00 C279.81,224.00 280.00,224.65 280.00,230.76 C280.00,236.45 280.32,237.72 282.01,238.78 C283.30,239.58 289.76,240.23 299.76,240.58 C308.42,240.88 316.51,241.33 317.75,241.58 C321.80,242.40 320.20,247.27 315.61,248.14 C314.57,248.34 313.22,249.38 312.61,250.46 C310.30,254.54 309.06,255.23 305.22,254.57 C300.53,253.77 294.00,250.98 294.00,249.79 C294.00,249.29 293.55,249.16 293.00,249.50 C292.45,249.84 292.00,249.59 292.00,248.95 C292.00,248.15 293.19,247.99 295.75,248.43 C306.89,250.35 307.00,250.35 307.00,248.11 C307.00,246.95 306.66,245.95 306.25,245.89 C305.84,245.84 300.55,245.64 294.51,245.45 C284.83,245.16 283.31,244.87 281.84,243.05 C279.95,240.72 274.00,239.07 274.00,240.88 C274.00,242.49 270.46,242.26 269.04,240.55 C268.38,239.75 266.30,238.59 264.42,237.97 C260.65,236.73 257.86,233.53 258.68,231.39 C259.96,228.05 265.05,230.87 265.73,235.29 C266.14,237.99 266.58,238.37 268.46,237.65 C271.10,236.64 270.16,232.89 266.36,229.30 C263.13,226.26 262.29,225.94 258.96,226.51 C254.39,227.28 253.20,225.88 255.47,222.41 C256.56,220.74 257.70,220.09 258.88,220.46 C260.75,221.06 267.00,218.42 267.00,217.03 C267.00,216.58 265.34,217.06 263.30,218.10 C259.74,219.92 258.07,219.48 258.02,216.72 C257.98,215.16 264.11,210.00 265.98,210.00 C267.04,210.00 268.27,209.34 268.72,208.53 C269.41,207.30 274.40,206.97 298.52,206.57 C334.77,205.97 338.12,205.97 340.14,206.58 C341.05,206.85 342.56,206.30 343.50,205.36 C344.85,204.01 345.77,203.85 347.86,204.63 C349.31,205.17 351.57,205.35 352.88,205.04 C355.04,204.52 355.11,204.34 353.63,203.11 C351.29,201.17 351.56,200.45 355.56,198.10 C360.37,195.26 361.31,195.43 360.78,199.04 C360.21,202.90 361.18,203.48 364.92,201.54 C366.75,200.59 370.54,200.00 374.75,200.00 C381.76,200.00 384.00,199.01 384.00,195.91 C384.00,193.65 386.01,193.00 393.02,193.00 C396.61,193.00 399.20,192.52 399.69,191.75 C400.14,191.06 400.95,187.57 401.50,184.00 L 402.50 177.50 L 408.47 177.19 C411.75,177.03 415.01,176.41 415.72,175.82 C416.50,175.17 417.01,172.38 417.02,168.63 C417.02,165.26 417.38,161.95 417.80,161.29 C418.30,160.51 422.09,159.97 428.43,159.79 C436.53,159.55 438.48,159.19 439.39,157.75 C440.81,155.49 439.19,152.75 436.00,152.00 C430.87,150.79 430.87,145.21 436.00,144.00 C437.27,143.70 438.69,142.68 439.16,141.73 C439.62,140.78 440.38,139.21 440.85,138.25 C441.32,137.29 443.01,136.35 444.60,136.16 C449.27,135.62 450.00,134.36 450.00,126.88 L 450.00 120.00 L 455.92 120.00 C459.17,120.00 461.98,120.44 462.17,120.97 C462.35,121.50 463.08,121.57 463.80,121.13 C464.69,120.58 465.23,117.08 465.49,110.19 C465.90,99.37 463.94,90.86 460.05,86.50 C459.07,85.40 458.01,82.85 457.71,80.84 C457.03,76.37 452.33,69.32 442.29,57.74 C432.00,45.86 415.66,35.14 403.22,32.08 C401.17,31.58 397.02,30.43 394.00,29.52 C389.04,28.02 375.17,27.81 252.00,27.32 C127.36,26.83 114.80,26.93 107.50,28.45 C97.02,30.62 92.16,32.31 82.61,37.08 C60.46,48.15 44.17,66.62 35.55,90.43 C34.77,92.58 34.10,94.40 33.51,96.25 C29.61,108.60 29.72,122.21 30.73,241.38 L 30.79 249.01 C31.40,321.33 32.17,381.40 32.50,382.50 C33.04,384.31 33.81,384.47 40.55,384.17 L 48.00 383.84 L 48.00 390.80 C48.00,397.92 48.72,399.45 52.39,400.14 C53.43,400.34 54.67,401.29 55.14,402.25 C55.61,403.21 56.38,404.78 56.84,405.73 C57.31,406.68 58.73,407.70 60.00,408.00 C61.27,408.30 62.69,409.32 63.16,410.27 C63.62,411.22 64.38,412.79 64.85,413.75 C65.49,415.05 67.17,415.58 71.44,415.80 C77.56,416.13 79.69,415.15 80.19,411.78 C80.36,410.64 81.29,409.32 82.25,408.85 L 85.75 407.15 C87.05,406.52 87.63,404.67 88.00,400.00 C88.34,395.75 88.99,393.48 90.00,393.01 C95.44,390.49 95.49,390.41 95.81,384.43 C96.16,377.60 97.17,376.00 101.12,376.00 L 104.00 376.00 L 104.00 399.87 L 100.85 400.19 C94.48,400.82 94.48,407.18 100.85,407.81 C103.80,408.11 104.00,408.38 104.00,412.06 L 104.00 416.00 L 97.12 416.00 C89.92,416.00 87.51,417.24 88.17,420.59 C88.47,422.13 89.51,422.92 94.00,425.01 C94.82,425.40 95.66,426.57 95.86,427.61 C96.05,428.65 96.67,430.06 97.23,430.75 ZM 237.02 370.60 C232.88,370.71 225.90,370.99 221.50,371.22 C205.46,372.08 201.23,370.42 208.50,366.13 C211.02,364.65 212.00,363.36 212.00,361.57 C212.00,360.09 212.82,358.63 214.00,358.00 C215.10,357.41 216.00,355.92 216.00,354.69 C216.00,353.45 216.65,351.52 217.44,350.38 C218.47,348.92 218.78,346.37 218.50,341.61 C218.22,336.70 218.46,334.76 219.42,334.39 C220.21,334.09 221.00,331.32 221.40,327.45 C221.84,323.10 222.84,319.85 224.48,317.44 C226.45,314.54 226.72,313.39 225.92,311.30 C224.74,308.18 225.60,305.00 227.62,305.00 C228.44,305.00 229.56,306.30 230.11,307.90 C230.67,309.49 232.03,311.04 233.14,311.33 C234.57,311.70 235.06,312.53 234.83,314.18 C234.65,315.45 233.94,316.56 233.25,316.62 C232.56,316.69 231.65,316.81 231.22,316.88 C229.71,317.11 226.83,323.11 227.45,324.72 C228.15,326.56 229.50,325.60 231.37,321.95 C234.08,316.63 235.91,321.32 233.67,327.83 C232.74,330.54 232.63,331.73 233.37,331.29 C233.99,330.92 233.87,331.40 233.09,332.35 C231.23,334.64 232.72,335.92 236.50,335.28 C238.66,334.92 240.55,333.35 243.25,329.65 C245.31,326.83 247.00,323.76 247.00,322.82 C247.00,321.89 247.45,320.84 247.99,320.51 C248.63,320.11 248.76,322.54 248.35,327.42 C247.65,335.64 248.66,337.32 252.90,335.05 C254.74,334.07 254.90,333.30 254.40,327.73 L 254.35 327.18 C253.58,318.61 253.38,316.34 254.35,315.60 C254.72,315.32 255.26,315.26 256.00,315.15 C257.38,314.96 258.86,314.18 259.30,313.40 C259.85,312.44 261.99,312.00 266.09,312.00 L 272.00 312.00 L 272.00 315.89 C272.00,319.62 271.80,319.89 268.85,320.19 C267.08,320.36 265.33,321.27 264.85,322.25 C264.38,323.21 263.62,324.79 263.15,325.75 C262.68,326.71 261.36,327.64 260.22,327.81 C257.69,328.19 255.61,333.21 257.29,334.89 C258.78,336.38 269.29,336.31 270.80,334.80 C271.50,334.10 272.00,330.77 272.00,326.84 L 272.00 320.09 L 279.15 319.79 C284.65,319.57 286.54,319.10 287.39,317.75 C288.19,316.48 288.19,315.52 287.39,314.25 C286.54,312.90 284.65,312.43 279.15,312.21 L 272.08 311.92 L 271.79 304.85 C271.56,299.23 271.13,297.53 269.75,296.85 C268.79,296.38 267.21,295.62 266.25,295.15 C262.19,293.17 264.36,286.88 269.54,285.58 C270.86,285.25 272.42,284.08 273.01,282.99 C274.66,279.89 278.35,280.45 279.69,284.00 C280.52,286.18 281.48,287.00 283.21,287.00 C284.53,287.00 286.03,287.40 286.55,287.88 C287.07,288.36 289.15,289.29 291.17,289.93 C293.19,290.57 295.38,291.75 296.04,292.55 C296.70,293.35 297.98,294.00 298.87,294.01 C302.37,294.03 309.98,298.69 312.45,302.33 C313.85,304.40 315.00,306.38 315.00,306.74 C315.00,307.10 316.18,309.10 317.63,311.18 C320.11,314.77 320.17,315.10 318.64,317.43 C317.63,318.98 317.24,320.95 317.60,322.75 C317.99,324.68 317.66,326.03 316.61,326.91 C315.75,327.62 314.77,329.73 314.42,331.59 C313.69,335.46 307.84,341.26 305.54,340.38 C304.55,340.00 303.86,340.72 303.38,342.61 C302.68,345.41 297.59,350.49 295.46,350.52 C294.82,350.52 292.62,351.82 290.56,353.39 C287.44,355.77 286.12,356.16 282.60,355.76 C278.49,355.30 278.40,355.35 278.79,358.02 C279.15,360.46 278.82,360.82 275.85,361.31 C269.43,362.36 266.49,363.27 264.82,364.72 C262.65,366.61 259.41,365.96 259.79,363.71 C259.96,362.76 259.46,362.00 258.67,362.00 C256.86,362.00 254.84,364.39 255.21,366.10 C255.40,366.94 254.07,367.62 251.50,367.99 C249.30,368.31 246.83,368.98 246.02,369.49 C245.21,369.99 241.16,370.49 237.02,370.60 ZM 209.36 327.49 C208.17,330.62 203.37,328.17 202.82,324.15 L 202.50 321.80 L 199.84 323.90 C196.84,326.28 194.26,326.53 190.52,324.83 C188.45,323.88 186.90,323.98 182.63,325.33 C179.71,326.25 176.27,327.00 174.99,327.00 L 172.65 327.00 L 174.95 324.55 C176.21,323.21 178.21,321.97 179.37,321.80 C183.15,321.26 181.87,318.53 177.69,318.19 C172.88,317.79 172.96,315.19 177.84,313.55 C179.68,312.93 181.61,311.66 182.14,310.71 C183.97,307.44 189.68,308.69 189.12,312.25 C188.92,313.48 190.67,313.10 191.87,311.66 C192.48,310.93 195.57,309.75 198.74,309.05 C205.48,307.55 209.96,305.45 210.10,303.72 C210.15,303.05 210.12,300.84 210.03,298.82 C209.91,296.27 210.49,294.51 211.93,293.07 C213.07,291.93 214.00,290.16 214.00,289.12 C214.00,288.09 214.27,285.91 214.59,284.28 C215.09,281.79 215.58,281.39 217.60,281.78 C219.59,282.16 220.21,281.68 221.11,279.12 C222.42,275.35 223.28,275.25 226.78,278.50 C228.27,279.88 230.48,281.00 231.70,281.00 C233.90,281.00 234.85,281.74 237.36,285.38 C238.42,286.91 239.04,287.05 240.74,286.14 C243.58,284.62 242.64,281.00 239.41,281.00 C237.82,281.00 236.56,280.06 235.55,278.09 C234.40,275.87 233.09,275.02 230.02,274.50 C225.29,273.70 225.04,272.87 228.71,270.19 C230.96,268.56 231.21,267.96 230.18,266.72 C229.50,265.89 227.58,265.02 225.91,264.77 C222.14,264.22 220.54,266.71 221.47,271.69 C222.04,274.74 221.90,275.10 220.31,274.61 C218.25,273.97 216.60,274.81 215.65,277.00 C214.43,279.78 216.04,268.13 217.41,264.25 C218.15,262.14 219.02,258.64 219.32,256.46 C219.63,254.28 220.62,250.74 221.52,248.58 C222.43,246.42 222.95,243.53 222.69,242.15 C222.00,238.55 223.91,234.68 225.66,236.13 C227.25,237.45 227.39,240.85 226.00,244.49 C225.32,246.29 225.33,246.91 226.05,246.47 C227.47,245.59 230.00,247.85 230.00,250.00 C230.00,250.97 229.33,252.31 228.52,252.98 C226.58,254.60 228.28,258.00 231.04,258.00 C232.12,258.00 232.89,258.53 232.75,259.17 C232.61,259.82 234.52,261.11 237.00,262.04 C239.66,263.05 242.11,264.81 243.00,266.37 C243.88,267.91 245.38,269.00 246.63,269.00 C247.80,269.00 249.32,269.67 250.00,270.50 C250.68,271.33 250.90,272.00 250.49,272.00 C248.26,272.00 254.96,276.64 257.42,276.81 C259.03,276.92 261.13,277.71 262.08,278.58 C263.46,279.82 264.55,279.94 267.34,279.17 C269.28,278.64 271.09,278.42 271.36,278.70 C272.22,279.55 270.85,282.00 269.52,282.00 C268.82,282.00 267.68,282.67 267.00,283.50 C265.20,285.67 261.26,285.36 259.97,282.94 C259.19,281.49 258.07,280.97 256.18,281.19 C251.96,281.68 252.77,284.44 257.25,284.81 C260.19,285.05 261.00,285.54 261.00,287.06 C261.00,289.41 257.82,289.69 256.00,287.50 C254.37,285.54 253.00,285.59 253.00,287.61 C253.00,288.49 254.12,290.10 255.50,291.18 C258.18,293.29 258.53,294.62 257.01,297.00 C256.23,298.23 255.23,297.64 251.49,293.75 C246.62,288.68 245.98,288.41 242.86,290.08 C239.42,291.92 233.17,290.24 231.51,287.02 C230.07,284.24 226.34,282.35 222.50,282.45 C221.01,282.49 220.26,283.52 219.54,286.50 C219.02,288.70 218.29,290.73 217.92,291.00 C217.55,291.27 216.91,293.07 216.49,295.00 C216.07,296.92 215.14,299.84 214.42,301.50 C213.70,303.15 212.84,306.58 212.51,309.12 C212.18,311.66 211.06,315.42 210.02,317.46 C208.62,320.21 208.36,321.82 209.03,323.58 C209.53,324.90 209.68,326.66 209.36,327.49 ZM 368.33 170.40 C366.51,172.79 366.39,172.80 343.50,173.20 C330.85,173.42 319.15,173.32 317.50,172.99 C315.85,172.65 310.65,172.58 305.95,172.82 C297.61,173.24 297.35,173.19 295.68,170.63 C294.01,168.09 293.63,168.00 284.18,168.00 C278.50,168.00 273.95,167.55 273.32,166.92 C272.54,166.14 271.67,166.19 270.25,167.08 C269.16,167.76 267.52,168.03 266.61,167.68 C264.40,166.83 263.40,163.99 264.97,163.02 C265.96,162.41 265.94,162.14 264.86,161.75 C263.85,161.38 263.79,160.94 264.62,160.05 C265.49,159.13 266.63,159.33 269.61,160.93 C272.98,162.73 275.22,163.00 287.17,163.00 C295.57,163.00 301.96,162.54 303.68,161.80 C305.48,161.04 313.38,160.54 325.50,160.43 C340.32,160.29 345.33,159.90 348.29,158.66 C350.44,157.76 353.31,157.31 354.91,157.63 C356.97,158.04 358.25,157.64 359.64,156.15 C360.69,155.03 362.21,154.23 363.02,154.37 C366.69,155.00 369.61,156.44 370.88,158.24 C371.91,159.71 372.98,160.05 375.13,159.62 C377.25,159.20 378.00,159.43 378.00,160.52 C378.00,161.34 377.55,162.00 377.00,162.00 C376.45,162.00 376.00,162.81 376.00,163.80 C376.00,166.07 374.11,168.00 371.88,168.00 C370.94,168.00 369.34,169.08 368.33,170.40 ZM 137.13 414.65 C137.79,415.45 139.22,415.96 140.31,415.80 C142.11,415.53 142.87,414.59 145.01,410.00 C145.40,409.17 146.57,408.34 147.61,408.14 C151.14,407.48 152.00,405.87 152.00,400.00 C152.00,394.08 152.86,392.51 156.50,391.85 C157.60,391.65 158.91,390.55 159.42,389.40 C159.93,388.25 161.66,386.81 163.26,386.21 C168.33,384.29 165.42,383.34 155.80,383.76 C146.05,384.18 144.32,384.83 143.81,388.22 C143.64,389.36 142.71,390.68 141.75,391.15 C140.79,391.62 139.21,392.39 138.25,392.86 C136.79,393.57 136.45,395.35 136.21,403.46 C136.02,409.96 136.32,413.69 137.13,414.65 ZM 42.61 417.98 C43.49,420.19 44.51,422.00 44.87,422.00 C45.23,422.00 46.31,420.19 47.27,417.97 C48.96,414.07 48.95,413.79 47.01,409.52 C45.90,407.10 45.00,404.22 45.00,403.13 C45.00,399.38 41.35,397.16 37.58,398.61 C35.35,399.46 35.62,401.87 38.47,406.50 C39.83,408.70 40.95,411.28 40.97,412.23 C40.99,413.18 41.72,415.77 42.61,417.98 ZM 164.59 324.50 C164.19,326.08 163.26,327.00 162.04,327.00 C157.67,327.00 158.68,322.50 163.99,318.26 C166.12,316.56 167.56,316.16 169.90,316.63 C171.61,316.97 173.00,317.61 173.00,318.05 C173.00,319.68 169.79,322.00 167.54,322.00 C165.90,322.00 165.03,322.73 164.59,324.50 ZM 62.96 390.55 C62.30,391.35 60.97,392.00 60.00,392.00 C56.02,392.00 54.79,386.79 58.25,384.61 C61.71,382.43 65.62,387.35 62.96,390.55 ZM 241.04 350.55 C241.70,351.35 243.03,352.00 244.00,352.00 C247.98,352.00 249.21,346.79 245.75,344.61 C242.29,342.43 238.38,347.35 241.04,350.55 ZM 392.00 142.05 C392.00,144.41 389.74,144.60 387.91,142.39 C387.17,141.50 385.69,140.45 384.62,140.05 C382.71,139.35 382.72,139.28 384.83,137.17 C386.03,135.97 387.60,135.00 388.34,135.00 C389.86,135.00 392.00,139.12 392.00,142.05 ZM 166.42 301.85 C167.27,305.49 166.26,307.40 164.16,306.10 C163.10,305.44 163.07,304.14 163.99,299.39 C164.62,296.15 165.24,292.28 165.37,290.78 C165.50,289.28 165.91,287.75 166.28,287.38 C167.54,286.12 168.27,290.13 167.18,292.32 C165.69,295.29 165.49,297.88 166.42,301.85 ZM 372.45 153.58 C368.45,155.26 368.29,155.27 367.55,154.09 C366.84,152.93 374.24,147.00 376.39,147.00 C379.73,147.00 376.91,151.72 372.45,153.58 ZM 250.64 176.48 C249.76,178.80 246.00,178.41 246.00,176.00 C246.00,174.90 245.34,174.00 244.54,174.00 C243.73,174.00 242.64,173.20 242.12,172.22 C241.33,170.75 241.56,170.46 243.45,170.54 C246.63,170.68 251.37,174.59 250.64,176.48 ZM 307.98 311.43 C308.92,313.91 311.34,314.87 312.39,313.18 C312.67,312.73 312.25,311.10 311.45,309.56 C310.65,308.03 310.00,306.15 310.00,305.39 C310.00,304.62 309.33,304.00 308.50,304.00 C306.76,304.00 306.51,307.58 307.98,311.43 ZM 463.25 141.34 C463.94,141.62 464.61,141.88 464.75,141.92 C464.89,141.96 465.00,138.82 465.00,134.93 C465.00,128.64 464.83,128.02 463.50,129.36 C461.63,131.23 461.43,140.60 463.25,141.34 ZM 301.86 237.11 C301.11,237.58 300.27,237.92 300.00,237.87 C297.13,237.29 296.00,236.66 296.00,235.63 C296.00,233.86 298.12,232.00 300.13,232.00 C302.37,232.00 303.70,235.94 301.86,237.11 ZM 323.00 261.10 C323.00,262.36 321.26,262.22 320.44,260.91 C320.07,260.30 318.72,260.01 317.45,260.25 C316.17,260.50 314.57,260.35 313.89,259.93 C312.13,258.85 311.90,256.00 313.56,256.00 C315.54,256.00 323.00,260.03 323.00,261.10 ZM 249.00 299.58 C249.00,301.76 246.43,301.82 244.70,299.69 C242.57,297.07 242.56,296.11 244.64,295.31 C246.33,294.66 249.00,297.28 249.00,299.58 ZM 218.54 369.06 C219.48,370.58 223.00,370.14 223.00,368.50 C223.00,367.67 222.56,367.00 222.02,367.00 C221.48,367.00 220.76,365.88 220.41,364.50 C220.07,363.12 219.48,362.00 219.10,362.00 C218.24,362.00 217.77,367.82 218.54,369.06 ZM 240.40 185.60 C239.42,185.23 237.93,185.66 236.86,186.63 C234.66,188.62 234.57,188.24 236.27,184.21 C237.38,181.56 237.79,181.33 239.52,182.34 C242.05,183.82 242.77,186.51 240.40,185.60 ZM 261.68 361.25 C262.29,362.29 266.93,358.79 266.97,357.25 C267.02,355.05 262.98,355.87 262.09,358.25 C261.62,359.49 261.43,360.84 261.68,361.25 ZM 235.60 196.17 C235.50,199.39 233.74,201.00 232.50,199.00 C231.48,197.35 232.84,193.00 234.37,193.00 C235.22,193.00 235.66,194.15 235.60,196.17 ZM 251.42 169.39 C248.99,170.32 248.00,170.12 248.00,168.70 C248.00,166.78 250.04,165.08 251.62,165.69 C253.49,166.40 253.37,168.65 251.42,169.39 ZM 162.00 312.50 C162.00,315.41 161.96,315.43 159.54,313.65 C157.57,312.21 158.18,310.00 160.56,310.00 C161.43,310.00 162.00,310.99 162.00,312.50 ZM 51.00 379.89 C51.00,380.93 50.33,382.05 49.50,382.36 C48.42,382.78 48.00,382.25 48.00,380.47 C48.00,378.94 48.57,378.00 49.50,378.00 C50.33,378.00 51.00,378.85 51.00,379.89 ZM 107.00 371.89 C107.00,372.93 106.32,374.05 105.50,374.36 C104.42,374.78 104.00,374.25 104.00,372.47 C104.00,370.94 104.57,370.00 105.50,370.00 C106.32,370.00 107.00,370.85 107.00,371.89 ZM 219.00 395.06 C219.00,396.22 222.03,396.26 223.83,395.12 C224.84,394.49 224.61,394.13 222.91,393.69 C220.47,393.05 219.00,393.56 219.00,395.06 ZM 146.00 433.50 C146.00,434.33 146.89,435.00 148.00,435.00 C149.11,435.00 150.00,434.33 150.00,433.50 C150.00,432.67 149.11,432.00 148.00,432.00 C146.89,432.00 146.00,432.67 146.00,433.50 ZM 287.67 304.33 C288.88,305.55 291.00,305.02 291.00,303.50 C291.00,302.67 290.11,302.00 289.00,302.00 C287.01,302.00 286.40,303.07 287.67,304.33 ZM 253.00 313.58 C253.00,313.81 252.32,314.00 251.50,314.00 C250.67,314.00 250.00,313.11 250.00,312.00 C250.00,309.62 251.54,309.35 252.39,311.58 C252.73,312.45 253.00,313.35 253.00,313.58 ZM 246.93 181.59 C245.40,183.42 244.12,183.39 244.39,181.53 C244.70,179.46 245.68,178.68 246.98,179.49 C247.80,179.99 247.78,180.56 246.93,181.59 ZM 257.55 305.91 C257.18,306.51 256.22,307.00 255.41,307.00 C254.21,307.00 254.15,306.59 255.06,304.89 C255.82,303.46 256.51,303.11 257.21,303.81 C257.77,304.37 257.92,305.31 257.55,305.91 ZM 384.29 152.00 C384.00,153.10 383.37,154.00 382.88,154.00 C382.40,154.00 382.00,153.10 382.00,152.00 C382.00,150.90 382.63,150.00 383.41,150.00 C384.32,150.00 384.63,150.70 384.29,152.00 ZM 395.00 120.94 C395.00,122.01 394.55,123.16 394.00,123.50 C393.43,123.85 393.00,123.01 393.00,121.56 C393.00,120.15 393.45,119.00 394.00,119.00 C394.55,119.00 395.00,119.87 395.00,120.94 ZM 287.00 336.50 C287.00,337.33 287.45,338.00 288.00,338.00 C288.55,338.00 289.00,337.33 289.00,336.50 C289.00,335.67 288.55,335.00 288.00,335.00 C287.45,335.00 287.00,335.67 287.00,336.50 ZM 351.00 362.50 C351.00,363.33 351.45,364.00 352.00,364.00 C352.55,364.00 353.00,363.33 353.00,362.50 C353.00,361.67 352.55,361.00 352.00,361.00 C351.45,361.00 351.00,361.67 351.00,362.50 ZM 256.00 351.00 C256.00,351.55 256.67,352.00 257.50,352.00 C258.33,352.00 259.00,351.55 259.00,351.00 C259.00,350.45 258.33,350.00 257.50,350.00 C256.67,350.00 256.00,350.45 256.00,351.00 ZM 192.50 320.00 C192.16,320.55 192.58,321.00 193.44,321.00 C194.30,321.00 195.00,320.55 195.00,320.00 C195.00,319.45 194.58,319.00 194.06,319.00 C193.54,319.00 192.84,319.45 192.50,320.00 ZM 389.00 112.00 C389.00,112.55 388.55,113.00 388.00,113.00 C387.45,113.00 387.00,112.55 387.00,112.00 C387.00,111.45 387.45,111.00 388.00,111.00 C388.55,111.00 389.00,111.45 389.00,112.00 Z" fill="rgb(2,1,8)"/>
<path d="M 97.23 430.75 C96.67,430.06 96.05,428.65 95.86,427.61 C95.66,426.57 94.82,425.40 94.00,425.01 C89.51,422.92 88.47,422.13 88.17,420.59 C87.51,417.24 89.92,416.00 97.12,416.00 L 104.00 416.00 L 104.00 412.06 C104.00,408.38 103.80,408.11 100.85,407.81 C94.48,407.18 94.48,400.82 100.85,400.19 L 104.00 399.87 L 104.00 376.00 L 101.12 376.00 C97.17,376.00 96.16,377.60 95.81,384.43 C95.49,390.41 95.44,390.49 90.00,393.01 C88.99,393.48 88.34,395.75 88.00,400.00 C87.63,404.67 87.05,406.52 85.75,407.15 L 82.25 408.85 C81.29,409.32 80.36,410.64 80.19,411.78 C79.69,415.15 77.56,416.13 71.44,415.80 C67.17,415.58 65.49,415.05 64.85,413.75 C64.38,412.79 63.62,411.22 63.16,410.27 C62.69,409.32 61.27,408.30 60.00,408.00 C58.73,407.70 57.31,406.68 56.84,405.73 C56.38,404.78 55.61,403.21 55.14,402.25 C54.67,401.29 53.43,400.34 52.39,400.14 C48.72,399.45 48.00,397.92 48.00,390.80 L 48.00 383.84 L 40.55 384.17 C33.81,384.47 33.04,384.31 32.50,382.50 C32.17,381.40 31.40,321.33 30.79,249.01 L 30.73 241.38 C29.72,122.21 29.61,108.60 33.51,96.25 C34.10,94.40 34.77,92.58 35.55,90.43 C44.17,66.62 60.46,48.15 82.61,37.08 C92.16,32.31 97.02,30.62 107.50,28.45 C114.80,26.93 127.36,26.83 252.00,27.32 C375.17,27.81 389.04,28.02 394.00,29.52 C397.02,30.43 401.17,31.58 403.22,32.08 C415.66,35.14 432.00,45.86 442.29,57.74 C452.33,69.32 457.03,76.37 457.71,80.84 C458.01,82.85 459.07,85.40 460.05,86.50 C463.94,90.86 465.90,99.37 465.49,110.19 C465.23,117.08 464.69,120.58 463.80,121.13 C463.08,121.57 462.35,121.50 462.17,120.97 C461.98,120.44 459.17,120.00 455.92,120.00 L 450.00 120.00 L 450.00 126.88 C450.00,134.36 449.27,135.62 444.60,136.16 C443.01,136.35 441.32,137.29 440.85,138.25 C440.38,139.21 439.62,140.78 439.16,141.73 C438.69,142.68 437.27,143.70 436.00,144.00 C430.87,145.21 430.87,150.79 436.00,152.00 C439.19,152.75 440.81,155.49 439.39,157.75 C438.48,159.19 436.53,159.55 428.43,159.79 C422.09,159.97 418.30,160.51 417.80,161.29 C417.38,161.95 417.02,165.26 417.02,168.63 C417.01,172.38 416.50,175.17 415.72,175.82 C415.01,176.41 411.75,177.03 408.47,177.19 L 402.50 177.50 L 401.50 184.00 C400.95,187.57 400.14,191.06 399.69,191.75 C399.20,192.52 396.61,193.00 393.02,193.00 C386.01,193.00 384.00,193.65 384.00,195.91 C384.00,199.01 381.76,200.00 374.75,200.00 C370.54,200.00 366.75,200.59 364.92,201.54 C361.18,203.48 360.21,202.90 360.78,199.04 C361.31,195.43 360.37,195.26 355.56,198.10 C351.56,200.45 351.29,201.17 353.63,203.11 C355.11,204.34 355.04,204.52 352.88,205.04 C351.57,205.35 349.31,205.17 347.86,204.63 C345.77,203.85 344.85,204.01 343.50,205.36 C342.56,206.30 341.05,206.85 340.14,206.58 C338.12,205.97 334.77,205.97 298.52,206.57 C274.40,206.97 269.41,207.30 268.72,208.53 C268.27,209.34 267.04,210.00 265.98,210.00 C264.11,210.00 257.98,215.16 258.02,216.72 C258.07,219.48 259.74,219.92 263.30,218.10 C265.34,217.06 267.00,216.58 267.00,217.03 C267.00,218.42 260.75,221.06 258.88,220.46 C257.70,220.09 256.56,220.74 255.47,222.41 C253.20,225.88 254.39,227.28 258.96,226.51 C262.29,225.94 263.13,226.26 266.36,229.30 C270.16,232.89 271.10,236.64 268.46,237.65 C266.58,238.37 266.14,237.99 265.73,235.29 C265.05,230.87 259.96,228.05 258.68,231.39 C257.86,233.53 260.65,236.73 264.42,237.97 C266.30,238.59 268.38,239.75 269.04,240.55 C270.46,242.26 274.00,242.49 274.00,240.88 C274.00,239.07 279.95,240.72 281.84,243.05 C283.31,244.87 284.83,245.16 294.51,245.45 C300.55,245.64 305.84,245.84 306.25,245.89 C306.66,245.95 307.00,246.95 307.00,248.11 C307.00,250.35 306.89,250.35 295.75,248.43 C293.19,247.99 292.00,248.15 292.00,248.95 C292.00,249.59 292.45,249.84 293.00,249.50 C293.55,249.16 294.00,249.29 294.00,249.79 C294.00,250.98 300.53,253.77 305.22,254.57 C309.06,255.23 310.30,254.54 312.61,250.46 C313.22,249.38 314.57,248.34 315.61,248.14 C320.20,247.27 321.80,242.40 317.75,241.58 C316.51,241.33 308.42,240.88 299.76,240.58 C289.76,240.23 283.30,239.58 282.01,238.78 C280.32,237.72 280.00,236.45 280.00,230.76 C280.00,224.65 279.81,224.00 277.99,224.00 C276.88,224.00 275.12,224.54 274.07,225.19 C272.57,226.12 271.82,226.10 270.58,225.07 C268.36,223.22 268.55,220.00 270.88,220.00 C271.91,220.00 273.44,218.99 274.28,217.75 C275.53,215.91 276.15,215.70 277.66,216.60 C278.68,217.21 279.64,219.12 279.82,220.89 L 280.13 224.08 L 287.21 223.79 C292.77,223.56 294.47,223.12 295.15,221.75 C296.07,219.85 296.53,218.63 297.39,217.86 C298.91,216.48 301.69,216.49 310.53,216.51 C311.49,216.51 312.51,216.52 313.62,216.52 C322.35,216.53 330.69,216.86 332.14,217.26 C337.33,218.68 336.52,224.25 330.96,225.36 C328.49,225.85 327.92,226.42 328.18,228.14 C328.36,229.32 329.29,230.68 330.25,231.15 C331.21,231.62 332.78,232.38 333.73,232.84 C334.68,233.31 335.70,234.73 336.00,236.00 C337.21,241.13 342.79,241.13 344.00,236.00 C344.30,234.73 345.32,233.31 346.27,232.84 C347.22,232.38 348.79,231.62 349.75,231.15 C351.05,230.52 351.63,228.67 352.00,224.00 C352.37,219.33 352.95,217.48 354.25,216.85 C355.21,216.38 356.79,215.60 357.75,215.12 C358.71,214.63 359.47,213.32 359.43,212.21 C359.38,210.76 360.16,210.02 362.18,209.61 C363.73,209.30 365.00,208.42 365.00,207.65 C365.00,206.88 365.73,205.64 366.61,204.90 C367.99,203.76 368.48,203.86 369.91,205.53 C370.84,206.61 372.48,208.00 373.55,208.61 C375.24,209.56 375.54,211.01 375.79,219.46 C376.11,230.46 375.56,231.74 370.28,232.19 C368.09,232.38 366.37,233.18 365.85,234.25 C365.38,235.21 364.62,236.79 364.15,237.75 C363.58,238.93 361.73,239.66 358.50,240.00 C353.84,240.49 352.84,241.24 351.59,245.27 C351.29,246.25 350.25,247.29 349.27,247.59 C345.79,248.68 344.54,249.72 343.99,252.02 C343.69,253.31 341.95,255.20 340.12,256.22 C336.63,258.17 333.78,257.89 330.83,255.30 C328.81,253.53 324.50,253.95 324.50,255.92 C324.50,256.70 325.85,257.77 327.50,258.30 C329.15,258.83 331.20,259.87 332.05,260.61 C332.91,261.35 334.71,262.12 336.05,262.33 C338.95,262.77 339.61,266.59 336.75,266.36 C334.20,266.16 334.61,267.50 337.50,268.82 C338.88,269.44 340.06,270.42 340.12,270.98 C340.37,272.98 340.54,273.52 341.32,274.75 C342.38,276.42 343.53,276.33 345.43,274.43 C346.86,272.99 347.06,272.99 347.62,274.44 C347.95,275.31 348.00,276.91 347.72,277.98 C347.17,280.06 349.19,282.48 350.43,281.24 C350.83,280.83 351.04,280.95 350.88,281.50 C350.72,282.05 352.03,284.01 353.79,285.86 C355.56,287.70 357.00,289.97 357.00,290.91 C357.00,293.27 358.98,295.00 361.70,295.00 C364.42,295.00 364.70,296.76 362.28,298.54 C361.01,299.47 360.61,301.04 360.76,304.53 C360.88,307.13 361.40,309.77 361.92,310.40 C362.99,311.70 362.71,315.28 361.24,319.00 C360.20,321.64 361.87,329.27 363.95,331.35 C364.53,331.93 365.00,333.47 365.00,334.78 C365.00,337.98 362.59,337.12 362.19,333.78 C361.96,331.82 361.44,331.33 359.99,331.71 C358.63,332.07 357.90,333.47 357.42,336.65 C356.81,340.78 354.91,344.00 353.09,344.00 C352.67,344.00 351.77,345.22 351.09,346.71 C350.41,348.20 348.99,350.02 347.92,350.77 C346.54,351.73 346.16,352.81 346.60,354.54 C347.09,356.48 346.72,357.16 344.81,357.88 C343.50,358.38 341.82,359.51 341.09,360.40 C340.35,361.28 338.96,362.00 337.99,362.00 C337.02,362.00 335.49,363.12 334.59,364.50 C333.69,365.88 332.15,367.00 331.16,367.00 C330.17,367.00 327.97,368.58 326.27,370.50 C324.57,372.42 322.34,374.06 321.34,374.12 C320.33,374.19 317.84,374.32 315.81,374.41 C313.78,374.51 311.27,375.35 310.23,376.29 C309.19,377.23 307.43,378.00 306.31,378.00 C305.19,378.00 303.13,378.90 301.73,380.00 C299.94,381.41 297.67,382.00 294.06,382.00 C291.24,382.00 287.26,382.73 285.22,383.62 C283.16,384.51 278.30,385.32 274.33,385.43 C270.39,385.53 266.50,386.17 265.70,386.83 C263.51,388.65 229.52,389.60 230.60,387.81 C231.12,386.94 230.76,387.00 229.50,388.00 C228.46,388.83 227.88,389.05 228.21,388.50 C228.59,387.88 226.30,387.46 222.16,387.40 C205.98,387.16 203.03,386.82 200.54,384.85 C198.37,383.14 197.58,383.05 194.20,384.06 C190.82,385.07 189.81,384.94 186.06,383.03 C183.08,381.51 179.84,380.82 175.39,380.75 C169.78,380.67 169.00,380.42 169.00,378.73 C169.00,376.96 168.50,376.86 162.88,377.51 C157.94,378.09 156.84,377.96 157.19,376.86 C157.43,376.11 158.61,375.06 159.81,374.51 C162.64,373.24 162.57,372.24 159.50,369.82 C158.12,368.74 157.00,366.97 157.00,365.90 C157.00,364.82 156.32,363.68 155.50,363.36 C153.75,362.69 153.37,353.09 154.98,350.24 C155.51,349.28 156.41,346.65 156.98,344.39 C157.61,341.84 159.02,339.56 160.68,338.39 C165.50,334.99 168.00,332.13 168.00,330.01 C168.00,328.26 167.69,328.10 166.07,328.96 C165.00,329.53 163.86,330.88 163.52,331.95 C162.73,334.44 159.05,335.69 157.89,333.86 C157.42,333.11 157.02,331.45 157.02,330.18 C157.00,327.44 154.21,327.48 152.86,330.25 C152.39,331.21 151.62,332.78 151.16,333.73 C150.69,334.68 149.27,335.70 148.00,336.00 C143.83,336.98 143.39,339.20 145.88,346.67 C147.21,350.65 148.02,355.17 147.83,357.50 C147.52,361.20 147.26,361.52 144.25,361.81 C141.95,362.04 141.00,362.64 141.00,363.86 C141.00,367.14 138.82,368.00 130.50,368.00 C125.53,368.00 121.94,368.46 121.20,369.20 C120.38,370.02 120.00,374.76 120.00,384.00 C120.00,393.24 119.62,397.98 118.80,398.80 C118.10,399.50 114.76,400.00 110.80,400.00 L 104.00 400.00 L 104.00 407.91 L 111.15 408.21 C118.93,408.53 118.93,408.52 121.06,415.75 C122.07,419.16 122.07,420.84 121.06,424.25 C119.32,430.13 118.55,431.45 116.59,431.83 C113.43,432.46 112.00,430.05 112.00,424.08 C112.00,417.72 110.89,416.00 106.80,416.00 C104.01,416.00 104.00,416.02 104.00,422.80 C104.00,426.76 103.50,430.10 102.80,430.80 C101.24,432.36 98.52,432.33 97.23,430.75 ZM 167.00 313.57 C167.00,314.54 169.33,313.87 173.78,311.62 C181.65,307.65 188.08,305.86 197.00,305.16 L 205.50 304.50 L 207.26 297.50 C208.22,293.65 212.14,275.42 215.97,257.00 C230.20,188.57 231.23,184.20 234.78,177.58 C238.53,170.57 245.42,163.91 252.52,160.43 L 258.50 157.50 L 304.50 156.93 C332.55,156.58 351.69,155.95 353.56,155.30 C362.53,152.21 368.88,148.13 376.13,140.79 C385.71,131.10 392.94,118.03 388.75,117.99 C388.06,117.98 335.22,117.99 271.32,118.00 C158.05,118.02 154.97,118.07 148.67,120.02 C135.85,123.98 122.64,135.54 115.58,148.98 C111.26,157.21 110.88,160.50 114.36,159.62 C122.19,157.66 134.32,157.04 165.19,157.02 C184.27,157.01 200.10,157.35 200.36,157.77 C200.85,158.57 199.15,167.13 193.94,190.00 C192.24,197.43 190.45,206.08 189.95,209.22 C189.45,212.37 187.85,219.57 186.41,225.22 C184.96,230.88 183.22,238.43 182.53,242.00 C181.85,245.57 179.67,255.70 177.69,264.50 C173.45,283.32 167.00,312.96 167.00,313.57 ZM 224.50 385.31 C260.76,387.71 295.33,382.45 318.13,371.05 C346.77,356.73 360.85,336.82 359.82,312.11 C359.46,303.55 359.02,301.68 355.79,295.00 C349.44,281.86 337.25,271.72 317.58,263.20 C313.18,261.29 301.26,256.85 291.09,253.32 C280.92,249.79 269.95,245.49 266.70,243.76 C260.20,240.30 251.99,231.30 252.01,227.66 C252.04,222.48 255.03,214.56 258.20,211.27 C264.56,204.67 264.72,204.64 304.50,204.04 L 340.50 203.50 L 346.50 200.50 C353.48,197.02 361.87,189.13 364.89,183.21 C366.05,180.94 367.00,178.84 367.00,178.54 C367.00,178.24 344.74,178.00 317.52,178.00 L 268.05 178.00 L 261.56 180.44 C253.71,183.40 245.03,189.63 240.84,195.31 C232.51,206.60 227.98,222.53 229.69,234.50 C232.27,252.56 244.13,264.73 270.53,276.40 C304.70,291.51 314.88,297.88 319.56,307.11 C324.28,316.43 322.68,326.09 314.53,337.51 C302.01,355.05 274.25,368.69 240.00,374.15 C227.83,376.08 199.23,375.98 197.96,373.99 C197.26,372.90 197.60,372.10 199.25,371.00 C207.68,365.34 212.70,358.11 214.84,348.50 C215.46,345.75 217.78,335.40 220.00,325.50 C222.22,315.60 224.26,306.49 224.53,305.25 C224.84,303.90 225.78,303.00 226.91,303.00 C229.84,303.00 236.77,309.14 238.07,312.90 C239.24,316.26 238.89,325.56 237.46,329.50 C236.83,331.23 237.09,331.15 239.36,328.98 C245.25,323.35 247.38,310.49 243.62,303.23 C241.97,300.05 234.09,292.02 232.55,291.95 C231.97,291.92 229.70,290.13 227.50,287.96 C225.30,285.79 223.24,284.01 222.92,284.01 C222.61,284.00 221.39,288.61 220.21,294.25 C216.29,313.10 211.01,334.39 210.00,335.40 C209.33,336.07 209.00,336.02 209.00,335.27 C209.00,334.65 206.43,332.89 203.29,331.35 C184.79,322.30 160.11,335.99 160.02,355.35 C159.98,363.94 164.57,370.48 173.52,374.62 C183.15,379.06 207.56,384.18 224.50,385.31 ZM 237.02 370.60 C241.16,370.49 245.21,369.99 246.02,369.49 C246.83,368.98 249.30,368.31 251.50,367.99 C254.07,367.62 255.40,366.94 255.21,366.10 C254.84,364.39 256.86,362.00 258.67,362.00 C259.46,362.00 259.96,362.76 259.79,363.71 C259.41,365.96 262.65,366.61 264.82,364.72 C266.49,363.27 269.43,362.36 275.85,361.31 C278.82,360.82 279.15,360.46 278.79,358.02 C278.40,355.35 278.49,355.30 282.60,355.76 C286.12,356.16 287.44,355.77 290.56,353.39 C292.62,351.82 294.82,350.52 295.46,350.52 C297.59,350.49 302.68,345.41 303.38,342.61 C303.86,340.72 304.55,340.00 305.54,340.38 C307.84,341.26 313.69,335.46 314.42,331.59 C314.77,329.73 315.75,327.62 316.61,326.91 C317.66,326.03 317.99,324.68 317.60,322.75 C317.24,320.95 317.63,318.98 318.64,317.43 C320.17,315.10 320.11,314.77 317.63,311.18 C316.18,309.10 315.00,307.10 315.00,306.74 C315.00,306.38 313.85,304.40 312.45,302.33 C309.98,298.69 302.37,294.03 298.87,294.01 C297.98,294.00 296.70,293.35 296.04,292.55 C295.38,291.75 293.19,290.57 291.17,289.93 C289.15,289.29 287.07,288.36 286.55,287.88 C286.03,287.40 284.53,287.00 283.21,287.00 C281.48,287.00 280.52,286.18 279.69,284.00 C278.35,280.45 274.66,279.89 273.01,282.99 C272.42,284.08 270.86,285.25 269.54,285.58 C264.36,286.88 262.19,293.17 266.25,295.15 C267.21,295.62 268.79,296.38 269.75,296.85 C271.13,297.53 271.56,299.23 271.79,304.85 L 272.08 311.92 L 279.15 312.21 C284.65,312.43 286.54,312.90 287.39,314.25 C288.19,315.52 288.19,316.48 287.39,317.75 C286.54,319.10 284.65,319.57 279.15,319.79 L 272.00 320.09 L 272.00 326.84 C272.00,330.77 271.50,334.10 270.80,334.80 C269.29,336.31 258.78,336.38 257.29,334.89 C255.61,333.21 257.69,328.19 260.22,327.81 C261.36,327.64 262.68,326.71 263.15,325.75 C263.62,324.79 264.38,323.21 264.85,322.25 C265.33,321.27 267.08,320.36 268.85,320.19 C271.80,319.89 272.00,319.62 272.00,315.89 L 272.00 312.00 L 266.09 312.00 C261.99,312.00 259.85,312.44 259.30,313.40 C258.86,314.18 257.38,314.96 256.00,315.15 C255.26,315.26 254.72,315.32 254.35,315.60 C253.38,316.34 253.58,318.61 254.35,327.18 L 254.40 327.73 C254.90,333.30 254.74,334.07 252.90,335.05 C248.66,337.32 247.65,335.64 248.35,327.42 C248.76,322.54 248.63,320.11 247.99,320.51 C247.45,320.84 247.00,321.89 247.00,322.82 C247.00,323.76 245.31,326.83 243.25,329.65 C240.55,333.35 238.66,334.92 236.50,335.28 C232.72,335.92 231.23,334.64 233.09,332.35 C233.87,331.40 233.99,330.92 233.37,331.29 C232.63,331.73 232.74,330.54 233.67,327.83 C235.91,321.32 234.08,316.63 231.37,321.95 C229.50,325.60 228.15,326.56 227.45,324.72 C226.83,323.11 229.71,317.11 231.22,316.88 C231.65,316.81 232.56,316.69 233.25,316.62 C233.94,316.56 234.65,315.45 234.83,314.18 C235.06,312.53 234.57,311.70 233.14,311.33 C232.03,311.04 230.67,309.49 230.11,307.90 C229.56,306.30 228.44,305.00 227.62,305.00 C225.60,305.00 224.74,308.18 225.92,311.30 C226.72,313.39 226.45,314.54 224.48,317.44 C222.84,319.85 221.84,323.10 221.40,327.45 C221.00,331.32 220.21,334.09 219.42,334.39 C218.46,334.76 218.22,336.70 218.50,341.61 C218.78,346.37 218.47,348.92 217.44,350.38 C216.65,351.52 216.00,353.45 216.00,354.69 C216.00,355.92 215.10,357.41 214.00,358.00 C212.82,358.63 212.00,360.09 212.00,361.57 C212.00,363.36 211.02,364.65 208.50,366.13 C201.23,370.42 205.46,372.08 221.50,371.22 C225.90,370.99 232.88,370.71 237.02,370.60 ZM 209.36 327.49 C209.68,326.66 209.53,324.90 209.03,323.58 C208.36,321.82 208.62,320.21 210.02,317.46 C211.06,315.42 212.18,311.66 212.51,309.12 C212.84,306.58 213.70,303.15 214.42,301.50 C215.14,299.84 216.07,296.92 216.49,295.00 C216.91,293.07 217.55,291.27 217.92,291.00 C218.29,290.73 219.02,288.70 219.54,286.50 C220.26,283.52 221.01,282.49 222.50,282.45 C226.34,282.35 230.07,284.24 231.51,287.02 C233.17,290.24 239.42,291.92 242.86,290.08 C245.98,288.41 246.62,288.68 251.49,293.75 C255.23,297.64 256.23,298.23 257.01,297.00 C258.53,294.62 258.18,293.29 255.50,291.18 C254.12,290.10 253.00,288.49 253.00,287.61 C253.00,285.59 254.37,285.54 256.00,287.50 C257.82,289.69 261.00,289.41 261.00,287.06 C261.00,285.54 260.19,285.05 257.25,284.81 C252.77,284.44 251.96,281.68 256.18,281.19 C258.07,280.97 259.19,281.49 259.97,282.94 C261.26,285.36 265.20,285.67 267.00,283.50 C267.68,282.67 268.82,282.00 269.52,282.00 C270.85,282.00 272.22,279.55 271.36,278.70 C271.09,278.42 269.28,278.64 267.34,279.17 C264.55,279.94 263.46,279.82 262.08,278.58 C261.13,277.71 259.03,276.92 257.42,276.81 C254.96,276.64 248.26,272.00 250.49,272.00 C250.90,272.00 250.68,271.33 250.00,270.50 C249.32,269.67 247.80,269.00 246.63,269.00 C245.38,269.00 243.88,267.91 243.00,266.37 C242.11,264.81 239.66,263.05 237.00,262.04 C234.52,261.11 232.61,259.82 232.75,259.17 C232.89,258.53 232.12,258.00 231.04,258.00 C228.28,258.00 226.58,254.60 228.52,252.98 C229.33,252.31 230.00,250.97 230.00,250.00 C230.00,247.85 227.47,245.59 226.05,246.47 C225.33,246.91 225.32,246.29 226.00,244.49 C227.39,240.85 227.25,237.45 225.66,236.13 C223.91,234.68 222.00,238.55 222.69,242.15 C222.95,243.53 222.43,246.42 221.52,248.58 C220.62,250.74 219.63,254.28 219.32,256.46 C219.02,258.64 218.15,262.14 217.41,264.25 C216.04,268.13 214.43,279.78 215.65,277.00 C216.60,274.81 218.25,273.97 220.31,274.61 C221.90,275.10 222.04,274.74 221.47,271.69 C220.54,266.71 222.14,264.22 225.91,264.77 C227.58,265.02 229.50,265.89 230.18,266.72 C231.21,267.96 230.96,268.56 228.71,270.19 C225.04,272.87 225.29,273.70 230.02,274.50 C233.09,275.02 234.40,275.87 235.55,278.09 C236.56,280.06 237.82,281.00 239.41,281.00 C242.64,281.00 243.58,284.62 240.74,286.14 C239.04,287.05 238.42,286.91 237.36,285.38 C234.85,281.74 233.90,281.00 231.70,281.00 C230.48,281.00 228.27,279.88 226.78,278.50 C223.28,275.25 222.42,275.35 221.11,279.12 C220.21,281.68 219.59,282.16 217.60,281.78 C215.58,281.39 215.09,281.79 214.59,284.28 C214.27,285.91 214.00,288.09 214.00,289.12 C214.00,290.16 213.07,291.93 211.93,293.07 C210.49,294.51 209.91,296.27 210.03,298.82 C210.12,300.84 210.15,303.05 210.10,303.72 C209.96,305.45 205.48,307.55 198.74,309.05 C195.57,309.75 192.48,310.93 191.87,311.66 C190.67,313.10 188.92,313.48 189.12,312.25 C189.68,308.69 183.97,307.44 182.14,310.71 C181.61,311.66 179.68,312.93 177.84,313.55 C172.96,315.19 172.88,317.79 177.69,318.19 C181.87,318.53 183.15,321.26 179.37,321.80 C178.21,321.97 176.21,323.21 174.95,324.55 L 172.65 327.00 L 174.99 327.00 C176.27,327.00 179.71,326.25 182.63,325.33 C186.90,323.98 188.45,323.88 190.52,324.83 C194.26,326.53 196.84,326.28 199.84,323.90 L 202.50 321.80 L 202.82 324.15 C203.37,328.17 208.17,330.62 209.36,327.49 ZM 368.33 170.40 C369.34,169.08 370.94,168.00 371.88,168.00 C374.11,168.00 376.00,166.07 376.00,163.80 C376.00,162.81 376.45,162.00 377.00,162.00 C377.55,162.00 378.00,161.34 378.00,160.52 C378.00,159.43 377.25,159.20 375.13,159.62 C372.98,160.05 371.91,159.71 370.88,158.24 C369.61,156.44 366.69,155.00 363.02,154.37 C362.21,154.23 360.69,155.03 359.64,156.15 C358.25,157.64 356.97,158.04 354.91,157.63 C353.31,157.31 350.44,157.76 348.29,158.66 C345.33,159.90 340.32,160.29 325.50,160.43 C313.38,160.54 305.48,161.04 303.68,161.80 C301.96,162.54 295.57,163.00 287.17,163.00 C275.22,163.00 272.98,162.73 269.61,160.93 C266.63,159.33 265.49,159.13 264.62,160.05 C263.79,160.94 263.85,161.38 264.86,161.75 C265.94,162.14 265.96,162.41 264.97,163.02 C263.40,163.99 264.40,166.83 266.61,167.68 C267.52,168.03 269.16,167.76 270.25,167.08 C271.67,166.19 272.54,166.14 273.32,166.92 C273.95,167.55 278.50,168.00 284.18,168.00 C293.63,168.00 294.01,168.09 295.68,170.63 C297.35,173.19 297.61,173.24 305.95,172.82 C310.65,172.58 315.85,172.65 317.50,172.99 C319.15,173.32 330.85,173.42 343.50,173.20 C366.39,172.80 366.51,172.79 368.33,170.40 ZM 137.13 414.65 C136.32,413.69 136.02,409.96 136.21,403.46 C136.45,395.35 136.79,393.57 138.25,392.86 C139.21,392.39 140.79,391.62 141.75,391.15 C142.71,390.68 143.64,389.36 143.81,388.22 C144.32,384.83 146.05,384.18 155.80,383.76 C165.42,383.34 168.33,384.29 163.26,386.21 C161.66,386.81 159.93,388.25 159.42,389.40 C158.91,390.55 157.60,391.65 156.50,391.85 C152.86,392.51 152.00,394.08 152.00,400.00 C152.00,405.87 151.14,407.48 147.61,408.14 C146.57,408.34 145.40,409.17 145.01,410.00 C142.87,414.59 142.11,415.53 140.31,415.80 C139.22,415.96 137.79,415.45 137.13,414.65 ZM 42.61 417.98 C41.72,415.77 40.99,413.18 40.97,412.23 C40.95,411.28 39.83,408.70 38.47,406.50 C35.62,401.87 35.35,399.46 37.58,398.61 C41.35,397.16 45.00,399.38 45.00,403.13 C45.00,404.22 45.90,407.10 47.01,409.52 C48.95,413.79 48.96,414.07 47.27,417.97 C46.31,420.19 45.23,422.00 44.87,422.00 C44.51,422.00 43.49,420.19 42.61,417.98 ZM 164.59 324.50 C165.03,322.73 165.90,322.00 167.54,322.00 C169.79,322.00 173.00,319.68 173.00,318.05 C173.00,317.61 171.61,316.97 169.90,316.63 C167.56,316.16 166.12,316.56 163.99,318.26 C158.68,322.50 157.67,327.00 162.04,327.00 C163.26,327.00 164.19,326.08 164.59,324.50 ZM 62.96 390.55 C65.62,387.35 61.71,382.43 58.25,384.61 C54.79,386.79 56.02,392.00 60.00,392.00 C60.97,392.00 62.30,391.35 62.96,390.55 ZM 241.04 350.55 C238.38,347.35 242.29,342.43 245.75,344.61 C249.21,346.79 247.98,352.00 244.00,352.00 C243.03,352.00 241.70,351.35 241.04,350.55 ZM 392.00 142.05 C392.00,139.12 389.86,135.00 388.34,135.00 C387.60,135.00 386.03,135.97 384.83,137.17 C382.72,139.28 382.71,139.35 384.62,140.05 C385.69,140.45 387.17,141.50 387.91,142.39 C389.74,144.60 392.00,144.41 392.00,142.05 ZM 166.42 301.85 C165.49,297.88 165.69,295.29 167.18,292.32 C168.27,290.13 167.54,286.12 166.28,287.38 C165.91,287.75 165.50,289.28 165.37,290.78 C165.24,292.28 164.62,296.15 163.99,299.39 C163.07,304.14 163.10,305.44 164.16,306.10 C166.26,307.40 167.27,305.49 166.42,301.85 ZM 372.45 153.58 C376.91,151.72 379.73,147.00 376.39,147.00 C374.24,147.00 366.84,152.93 367.55,154.09 C368.29,155.27 368.45,155.26 372.45,153.58 ZM 250.64 176.48 C251.37,174.59 246.63,170.68 243.45,170.54 C241.56,170.46 241.33,170.75 242.12,172.22 C242.64,173.20 243.73,174.00 244.54,174.00 C245.34,174.00 246.00,174.90 246.00,176.00 C246.00,178.41 249.76,178.80 250.64,176.48 ZM 307.98 311.43 C306.51,307.58 306.76,304.00 308.50,304.00 C309.33,304.00 310.00,304.62 310.00,305.39 C310.00,306.15 310.65,308.03 311.45,309.56 C312.25,311.10 312.67,312.73 312.39,313.18 C311.34,314.87 308.92,313.91 307.98,311.43 ZM 463.25 141.34 C461.43,140.60 461.63,131.23 463.50,129.36 C464.83,128.02 465.00,128.64 465.00,134.93 C465.00,138.82 464.89,141.96 464.75,141.92 C464.61,141.88 463.94,141.62 463.25,141.34 ZM 301.86 237.11 C303.70,235.94 302.37,232.00 300.13,232.00 C298.12,232.00 296.00,233.86 296.00,235.63 C296.00,236.66 297.13,237.29 300.00,237.87 C300.27,237.92 301.11,237.58 301.86,237.11 ZM 323.00 261.10 C323.00,260.03 315.54,256.00 313.56,256.00 C311.90,256.00 312.13,258.85 313.89,259.93 C314.57,260.35 316.17,260.50 317.45,260.25 C318.72,260.01 320.07,260.30 320.44,260.91 C321.26,262.22 323.00,262.36 323.00,261.10 ZM 249.00 299.58 C249.00,297.28 246.33,294.66 244.64,295.31 C242.56,296.11 242.57,297.07 244.70,299.69 C246.43,301.82 249.00,301.76 249.00,299.58 ZM 218.54 369.06 C217.77,367.82 218.24,362.00 219.10,362.00 C219.48,362.00 220.07,363.12 220.41,364.50 C220.76,365.88 221.48,367.00 222.02,367.00 C222.56,367.00 223.00,367.67 223.00,368.50 C223.00,370.14 219.48,370.58 218.54,369.06 ZM 240.40 185.60 C242.77,186.51 242.05,183.82 239.52,182.34 C237.79,181.33 237.38,181.56 236.27,184.21 C234.57,188.24 234.66,188.62 236.86,186.63 C237.93,185.66 239.42,185.23 240.40,185.60 ZM 261.68 361.25 C261.43,360.84 261.62,359.49 262.09,358.25 C262.98,355.87 267.02,355.05 266.97,357.25 C266.93,358.79 262.29,362.29 261.68,361.25 ZM 235.60 196.17 C235.66,194.15 235.22,193.00 234.37,193.00 C232.84,193.00 231.48,197.35 232.50,199.00 C233.74,201.00 235.50,199.39 235.60,196.17 ZM 251.42 169.39 C253.37,168.65 253.49,166.40 251.62,165.69 C250.04,165.08 248.00,166.78 248.00,168.70 C248.00,170.12 248.99,170.32 251.42,169.39 ZM 162.00 312.50 C162.00,310.99 161.43,310.00 160.56,310.00 C158.18,310.00 157.57,312.21 159.54,313.65 C161.96,315.43 162.00,315.41 162.00,312.50 ZM 51.00 379.89 C51.00,378.85 50.33,378.00 49.50,378.00 C48.57,378.00 48.00,378.94 48.00,380.47 C48.00,382.25 48.42,382.78 49.50,382.36 C50.33,382.05 51.00,380.93 51.00,379.89 ZM 107.00 371.89 C107.00,370.85 106.32,370.00 105.50,370.00 C104.57,370.00 104.00,370.94 104.00,372.47 C104.00,374.25 104.42,374.78 105.50,374.36 C106.32,374.05 107.00,372.93 107.00,371.89 ZM 219.00 395.06 C219.00,393.56 220.47,393.05 222.91,393.69 C224.61,394.13 224.84,394.49 223.83,395.12 C222.03,396.26 219.00,396.22 219.00,395.06 ZM 146.00 433.50 C146.00,432.67 146.89,432.00 148.00,432.00 C149.11,432.00 150.00,432.67 150.00,433.50 C150.00,434.33 149.11,435.00 148.00,435.00 C146.89,435.00 146.00,434.33 146.00,433.50 ZM 287.67 304.33 C286.40,303.07 287.01,302.00 289.00,302.00 C290.11,302.00 291.00,302.67 291.00,303.50 C291.00,305.02 288.88,305.55 287.67,304.33 ZM 253.00 313.58 C253.00,313.35 252.73,312.45 252.39,311.58 C251.54,309.35 250.00,309.62 250.00,312.00 C250.00,313.11 250.67,314.00 251.50,314.00 C252.32,314.00 253.00,313.81 253.00,313.58 ZM 246.93 181.59 C247.78,180.56 247.80,179.99 246.98,179.49 C245.68,178.68 244.70,179.46 244.39,181.53 C244.12,183.39 245.40,183.42 246.93,181.59 ZM 257.55 305.91 C257.92,305.31 257.77,304.37 257.21,303.81 C256.51,303.11 255.82,303.46 255.06,304.89 C254.15,306.59 254.21,307.00 255.41,307.00 C256.22,307.00 257.18,306.51 257.55,305.91 ZM 384.29 152.00 C384.63,150.70 384.32,150.00 383.41,150.00 C382.63,150.00 382.00,150.90 382.00,152.00 C382.00,153.10 382.40,154.00 382.88,154.00 C383.37,154.00 384.00,153.10 384.29,152.00 ZM 395.00 120.94 C395.00,119.87 394.55,119.00 394.00,119.00 C393.45,119.00 393.00,120.15 393.00,121.56 C393.00,123.01 393.43,123.85 394.00,123.50 C394.55,123.16 395.00,122.01 395.00,120.94 ZM 287.00 336.50 C287.00,335.67 287.45,335.00 288.00,335.00 C288.55,335.00 289.00,335.67 289.00,336.50 C289.00,337.33 288.55,338.00 288.00,338.00 C287.45,338.00 287.00,337.33 287.00,336.50 ZM 351.00 362.50 C351.00,361.67 351.45,361.00 352.00,361.00 C352.55,361.00 353.00,361.67 353.00,362.50 C353.00,363.33 352.55,364.00 352.00,364.00 C351.45,364.00 351.00,363.33 351.00,362.50 ZM 256.00 351.00 C256.00,350.45 256.67,350.00 257.50,350.00 C258.33,350.00 259.00,350.45 259.00,351.00 C259.00,351.55 258.33,352.00 257.50,352.00 C256.67,352.00 256.00,351.55 256.00,351.00 ZM 192.50 320.00 C192.84,319.45 193.54,319.00 194.06,319.00 C194.58,319.00 195.00,319.45 195.00,320.00 C195.00,320.55 194.30,321.00 193.44,321.00 C192.58,321.00 192.16,320.55 192.50,320.00 ZM 389.00 112.00 C389.00,111.45 388.55,111.00 388.00,111.00 C387.45,111.00 387.00,111.45 387.00,112.00 C387.00,112.55 387.45,113.00 388.00,113.00 C388.55,113.00 389.00,112.55 389.00,112.00 Z" fill="rgb(9,4,25)"/>
<path d="M 300.54 377.96 C301.49,377.58 302.00,377.25 302.00,376.99 C302.00,376.58 300.67,375.98 299.05,375.66 C296.20,375.09 296.10,374.89 296.46,370.28 C296.66,367.65 296.86,365.21 296.91,364.87 C296.96,364.52 297.94,363.99 299.09,363.69 C300.67,363.27 301.02,362.64 300.52,361.07 C300.04,359.57 300.30,359.00 301.46,359.00 C303.61,359.00 304.52,356.33 302.99,354.49 C302.01,353.31 302.01,352.69 303.00,351.50 C303.68,350.67 304.62,350.00 305.07,350.00 C306.45,350.00 317.79,338.25 318.46,336.12 C318.81,335.02 320.61,333.62 322.46,333.01 C324.31,332.40 326.08,331.22 326.40,330.39 C326.80,329.35 327.90,329.02 329.93,329.34 C333.11,329.84 335.25,328.17 336.45,324.25 C336.83,323.00 337.94,322.00 338.95,322.00 C339.95,322.00 341.94,320.46 343.38,318.57 C344.82,316.68 347.01,314.83 348.25,314.45 C349.49,314.08 351.53,312.82 352.79,311.67 C356.08,308.66 358.32,310.40 359.16,316.60 C359.61,319.99 359.75,318.57 359.61,312.00 C359.51,307.05 359.35,304.44 358.62,301.83 C359.38,304.50 359.62,307.21 359.82,312.11 C360.85,336.82 346.77,356.73 318.13,371.05 C312.86,373.69 306.95,376.00 300.54,377.96 ZM 275.32 383.51 C261.74,385.51 246.98,386.27 231.80,385.69 C244.72,385.90 264.39,384.95 275.32,383.51 ZM 214.66 384.33 C209.38,383.65 203.84,382.73 198.51,381.67 C203.75,382.71 209.27,383.62 214.66,384.33 ZM 357.43 298.55 C356.98,297.52 356.44,296.36 355.79,295.00 C353.84,290.97 351.34,287.22 348.24,283.71 C351.34,287.22 353.84,290.97 355.79,295.00 C356.44,296.35 356.98,297.50 357.43,298.55 ZM 280.67 382.65 C282.34,382.35 283.95,382.05 285.48,381.74 C283.90,382.06 282.29,382.37 280.67,382.65 Z" fill="rgb(47,162,246)"/>
<path d="M 293.00 286.68 C298.79,289.53 298.98,289.52 300.23,286.21 C300.80,284.68 303.45,281.87 306.10,279.96 C308.75,278.06 311.44,275.28 312.07,273.78 C313.49,270.40 315.11,269.03 318.35,268.44 C323.57,267.49 325.02,266.92 322.44,265.41 C333.63,270.77 342.11,276.76 348.24,283.71 L 348.28 283.75 C349.39,285.01 350.42,286.30 351.37,287.62 C350.79,287.15 350.21,287.00 349.52,287.00 C347.87,287.00 346.69,286.13 345.80,284.25 C344.06,280.61 339.31,279.82 338.83,283.09 C338.65,284.30 337.66,285.79 336.63,286.40 C335.61,287.00 332.91,289.33 330.63,291.56 C328.36,293.80 325.26,296.39 323.75,297.33 C321.30,298.86 321.01,299.62 321.06,304.27 C321.09,306.91 321.40,310.86 321.78,313.47 C321.36,311.33 320.62,309.21 319.56,307.11 C315.63,299.36 307.81,293.62 285.14,283.01 C288.78,284.68 291.71,286.04 293.00,286.68 ZM 271.23 382.96 C272.04,383.29 272.79,383.59 273.23,383.77 C262.03,385.06 243.93,385.89 231.80,385.69 C231.65,385.68 231.50,385.68 231.36,385.67 C232.06,385.18 232.41,383.59 232.12,381.75 C232.05,381.34 232.40,381.00 232.89,381.00 C233.38,381.00 234.05,380.33 234.36,379.50 C235.68,376.06 234.64,375.56 220.05,375.51 C227.46,375.38 235.08,374.93 240.00,374.15 C262.54,370.56 282.27,363.42 296.70,353.96 C293.34,356.24 289.71,358.39 285.84,360.36 C283.82,361.38 280.23,363.95 277.84,366.06 C275.45,368.18 272.94,370.40 272.25,370.99 C271.56,371.59 271.00,373.02 271.00,374.18 C271.00,375.33 270.25,376.83 269.34,377.50 C267.24,379.03 268.18,381.74 271.23,382.96 ZM 238.07 312.90 C237.60,311.52 236.36,309.82 234.84,308.21 C236.10,309.45 237.30,310.81 238.29,312.21 C238.95,313.15 241.03,314.18 242.89,314.50 L 245.35 314.92 C245.03,318.02 244.20,321.12 242.94,323.81 C242.91,323.36 242.44,323.28 241.50,323.64 C240.36,324.08 239.97,323.40 239.88,320.86 C239.78,317.93 239.66,318.10 238.98,322.16 C238.79,323.26 238.57,324.47 238.34,325.59 C238.97,321.17 238.94,315.40 238.07,312.90 ZM 270.23 276.26 C258.71,271.15 249.98,265.93 243.60,260.17 C249.85,265.67 258.49,270.80 270.23,276.26 ZM 210.37 375.48 C201.01,375.39 198.64,375.04 197.97,374.00 C197.95,373.97 197.93,373.94 197.92,373.91 C197.93,373.94 197.95,373.97 197.96,373.99 C198.49,374.81 203.64,375.31 210.37,375.48 ZM 210.11 360.17 C212.39,356.39 214.03,351.83 215.45,345.82 C215.18,347.00 214.97,347.92 214.84,348.50 C213.87,352.85 212.31,356.72 210.11,360.17 ZM 216.07 343.04 C217.97,334.33 219.78,326.26 221.29,319.71 L 220.00 325.50 C218.57,331.88 217.10,338.44 216.07,343.04 ZM 237.41 329.62 C237.01,331.21 237.43,330.91 239.94,328.23 C240.44,327.70 240.88,327.21 241.25,326.75 C240.67,327.58 240.04,328.33 239.36,328.98 C237.14,331.10 236.84,331.22 237.41,329.62 ZM 306.72 258.95 C301.87,257.15 296.24,255.13 291.05,253.32 C280.91,249.79 269.96,245.49 266.70,243.76 C269.96,245.49 280.93,249.79 291.09,253.32 C296.25,255.11 301.87,257.14 306.72,258.95 ZM 225.17 303.88 C225.28,303.52 225.36,303.30 225.41,303.26 C225.74,302.93 226.28,302.86 226.98,303.00 C226.95,303.00 226.93,303.00 226.91,303.00 C226.23,303.00 225.62,303.33 225.17,303.88 ZM 300.54 377.96 C300.38,378.01 300.23,378.05 300.08,378.10 C301.53,377.52 302.06,377.03 301.70,376.61 C301.89,376.74 302.00,376.88 302.00,376.99 C302.00,377.25 301.49,377.58 300.54,377.96 ZM 245.06 307.49 C244.64,305.79 244.10,304.17 243.62,303.23 C244.28,304.50 244.75,305.94 245.06,307.49 ZM 357.43 298.55 C357.62,299.01 357.80,299.44 357.96,299.86 C357.52,298.73 356.97,297.49 356.26,295.99 C356.71,296.94 357.10,297.78 357.43,298.55 ZM 358.47 301.33 C358.52,301.50 358.57,301.66 358.62,301.83 L 358.62 301.83 C358.77,302.37 358.89,302.90 359.00,303.45 C358.86,302.73 358.68,302.03 358.47,301.33 Z" fill="rgb(81,113,239)"/>
<path d="M 275.32 383.51 C274.65,383.60 273.96,383.69 273.23,383.77 C272.79,383.59 272.04,383.29 271.23,382.96 C268.18,381.74 267.24,379.03 269.34,377.50 C270.25,376.83 271.00,375.33 271.00,374.18 C271.00,373.02 271.56,371.59 272.25,370.99 C272.94,370.40 275.45,368.18 277.84,366.06 C280.23,363.95 283.82,361.38 285.84,360.36 C289.71,358.39 293.34,356.24 296.70,353.96 C304.19,349.05 310.25,343.51 314.53,337.51 C320.84,328.66 323.22,320.87 321.78,313.47 C321.40,310.86 321.09,306.91 321.06,304.27 C321.01,299.62 321.30,298.86 323.75,297.33 C325.26,296.39 328.36,293.80 330.63,291.56 C332.91,289.33 335.61,287.00 336.63,286.40 C337.66,285.79 338.65,284.30 338.83,283.09 C339.31,279.82 344.06,280.61 345.80,284.25 C346.69,286.13 347.87,287.00 349.52,287.00 C350.21,287.00 350.79,287.15 351.37,287.62 C353.08,289.97 354.54,292.43 355.79,295.00 C355.95,295.34 356.11,295.67 356.26,295.99 C356.97,297.49 357.52,298.73 357.96,299.86 L 357.96 299.86 C358.15,300.36 358.32,300.85 358.47,301.33 C358.68,302.03 358.86,302.73 359.00,303.45 C359.41,305.61 359.53,308.07 359.61,312.00 C359.75,318.57 359.61,319.99 359.16,316.60 C358.32,310.40 356.08,308.66 352.79,311.67 C351.53,312.82 349.49,314.08 348.25,314.45 C347.01,314.83 344.82,316.68 343.38,318.57 C341.94,320.46 339.95,322.00 338.95,322.00 C337.94,322.00 336.83,323.00 336.45,324.25 C335.25,328.17 333.11,329.84 329.93,329.34 C327.90,329.02 326.80,329.35 326.40,330.39 C326.08,331.22 324.31,332.40 322.46,333.01 C320.61,333.62 318.81,335.02 318.46,336.12 C317.79,338.25 306.45,350.00 305.07,350.00 C304.62,350.00 303.68,350.67 303.00,351.50 C302.01,352.69 302.01,353.31 302.99,354.49 C304.52,356.33 303.61,359.00 301.46,359.00 C300.30,359.00 300.04,359.57 300.52,361.07 C301.02,362.64 300.67,363.27 299.09,363.69 C297.94,363.99 296.96,364.52 296.91,364.87 C296.86,365.21 296.66,367.65 296.46,370.28 C296.10,374.89 296.20,375.09 299.05,375.66 C300.21,375.89 301.22,376.26 301.70,376.61 C302.06,377.03 301.53,377.52 300.08,378.10 C295.45,379.50 290.57,380.71 285.48,381.74 L 285.48 381.74 C283.94,382.05 282.34,382.35 280.67,382.65 C278.91,382.96 277.12,383.25 275.32,383.51 Z" fill="rgb(62,139,245)"/>
<path d="M 199.23 374.78 C197.57,374.62 196.44,374.45 196.00,374.26 L 193.50 373.19 L 197.27 371.57 C200.56,370.16 204.17,367.38 207.09,364.20 C204.90,366.70 202.30,368.95 199.25,371.00 C197.64,372.08 197.28,372.86 197.92,373.91 L 197.92 373.91 C197.93,373.94 197.95,373.97 197.96,373.99 L 197.97 374.00 C198.17,374.32 198.54,374.58 199.23,374.78 ZM 213.57 352.50 C214.28,350.27 214.98,347.75 215.55,345.36 L 215.45 345.82 C214.87,348.27 214.25,350.49 213.57,352.50 Z" fill="rgb(39,8,68)"/>
<path d="M 237.41 329.62 C237.43,329.58 237.44,329.54 237.46,329.50 C237.83,328.49 238.12,327.12 238.34,325.59 C238.57,324.47 238.79,323.26 238.98,322.16 C239.66,318.10 239.78,317.93 239.88,320.86 C239.97,323.40 240.36,324.08 241.50,323.64 C242.44,323.28 242.91,323.36 242.94,323.81 C242.45,324.86 241.88,325.85 241.25,326.75 C240.88,327.21 240.44,327.70 239.94,328.23 C237.43,330.91 237.01,331.21 237.41,329.62 Z" fill="rgb(67,83,179)"/>
<path d="M 224.50 385.31 C207.56,384.18 183.15,379.06 173.52,374.62 C164.57,370.48 159.98,363.94 160.02,355.35 C160.11,335.99 184.79,322.30 203.29,331.35 C206.43,332.89 209.00,334.65 209.00,335.27 C209.00,336.02 209.33,336.07 210.00,335.40 C211.01,334.39 216.29,313.10 220.21,294.25 C221.39,288.61 222.61,284.00 222.92,284.01 C223.24,284.01 225.30,285.79 227.50,287.96 C229.70,290.13 231.97,291.92 232.55,291.95 C234.09,292.02 241.97,300.05 243.62,303.23 C244.40,304.74 245.31,308.02 245.66,310.52 L 246.28 315.08 L 242.89 314.50 C241.03,314.18 238.95,313.15 238.29,312.21 C234.33,306.62 227.08,301.58 225.41,303.26 C224.95,303.72 220.69,321.87 215.86,344.00 C214.72,349.22 212.74,355.55 211.47,358.06 C208.75,363.43 202.59,369.29 197.27,371.57 L 193.50 373.19 L 196.00 374.26 C197.43,374.87 206.11,375.36 216.24,375.41 C234.45,375.50 235.78,375.80 234.36,379.50 C234.05,380.33 233.38,381.00 232.89,381.00 C232.40,381.00 232.05,381.34 232.12,381.75 C232.48,384.07 231.84,385.98 230.75,385.82 C230.06,385.72 227.25,385.49 224.50,385.31 ZM 167.00 313.57 C167.00,312.96 173.45,283.32 177.69,264.50 C179.67,255.70 181.85,245.57 182.53,242.00 C183.22,238.43 184.96,230.88 186.41,225.22 C187.85,219.57 189.45,212.37 189.95,209.22 C190.45,206.08 192.24,197.43 193.94,190.00 C199.15,167.13 200.85,158.57 200.36,157.77 C200.10,157.35 184.27,157.01 165.19,157.02 C134.32,157.04 122.19,157.66 114.36,159.62 C110.88,160.50 111.26,157.21 115.58,148.98 C122.64,135.54 135.85,123.98 148.67,120.02 C154.97,118.07 158.05,118.02 271.32,118.00 C335.22,117.99 388.06,117.98 388.75,117.99 C392.94,118.03 385.71,131.10 376.13,140.79 C368.88,148.13 362.53,152.21 353.56,155.30 C351.69,155.95 332.55,156.58 304.50,156.93 L 258.50 157.50 L 252.52 160.43 C245.42,163.91 238.53,170.57 234.78,177.58 C231.23,184.20 230.20,188.57 215.97,257.00 C212.14,275.42 208.22,293.65 207.26,297.50 L 205.50 304.50 L 197.00 305.16 C188.08,305.86 181.65,307.65 173.78,311.62 C169.33,313.87 167.00,314.54 167.00,313.57 ZM 293.00 286.68 C290.52,285.46 281.98,281.54 274.00,277.98 C243.75,264.47 232.38,253.31 229.69,234.50 C227.98,222.53 232.51,206.60 240.84,195.31 C245.03,189.63 253.71,183.40 261.56,180.44 L 268.05 178.00 L 317.52 178.00 C344.74,178.00 367.00,178.24 367.00,178.54 C367.00,178.84 366.05,180.94 364.89,183.21 C361.87,189.13 353.48,197.02 346.50,200.50 L 340.50 203.50 L 304.50 204.04 C264.72,204.64 264.56,204.67 258.20,211.27 C255.03,214.56 252.04,222.48 252.01,227.66 C251.99,231.30 260.20,240.30 266.70,243.76 C269.95,245.49 280.91,249.79 291.05,253.32 C301.20,256.85 313.04,261.23 317.36,263.05 C325.57,266.52 325.68,267.11 318.35,268.44 C315.11,269.03 313.49,270.40 312.07,273.78 C311.44,275.28 308.75,278.06 306.10,279.96 C303.45,281.87 300.80,284.68 300.23,286.21 C298.98,289.52 298.79,289.53 293.00,286.68 Z" fill="rgb(107,97,244)"/>
<path d="M 201.50 382.46 C170.75,376.64 159.96,369.58 160.02,355.35 C160.09,340.97 174.19,328.60 190.50,328.61 C196.83,328.61 197.95,328.93 202.17,331.94 C207.76,335.93 207.60,337.15 200.57,344.58 C198.06,347.25 196.00,350.01 196.00,350.71 C196.00,351.42 195.64,352.00 195.20,352.00 C194.75,352.00 194.35,353.86 194.30,356.13 C194.25,358.40 193.82,360.53 193.34,360.88 C192.28,361.63 192.32,367.08 193.39,368.82 C193.90,369.64 195.32,369.84 197.58,369.42 C202.08,368.57 201.93,369.57 197.25,371.58 C193.88,373.03 193.71,373.27 195.55,373.99 C196.68,374.43 201.52,375.11 206.31,375.51 C214.80,376.22 214.98,376.29 212.98,378.02 C211.85,378.99 211.00,380.18 211.08,380.65 C211.75,384.35 211.62,384.37 201.50,382.46 ZM 167.00 313.57 C167.00,312.96 173.45,283.32 177.69,264.50 C179.67,255.70 181.85,245.57 182.53,242.00 C183.22,238.43 184.96,230.88 186.41,225.22 C187.85,219.57 189.45,212.37 189.95,209.22 C190.45,206.08 192.24,197.43 193.94,190.00 C199.15,167.13 200.85,158.57 200.36,157.77 C200.10,157.35 184.27,157.01 165.19,157.02 C134.32,157.04 122.19,157.66 114.36,159.62 C110.88,160.50 111.26,157.21 115.58,148.98 C122.64,135.54 135.85,123.98 148.67,120.02 C154.97,118.07 158.05,118.02 271.32,118.00 C335.22,117.99 388.06,117.98 388.75,117.99 C392.94,118.03 385.71,131.10 376.13,140.79 C368.88,148.13 362.53,152.21 353.56,155.30 C351.69,155.95 332.55,156.58 304.50,156.93 L 258.50 157.50 L 252.52 160.43 C245.42,163.91 238.53,170.57 234.78,177.58 C231.23,184.20 230.20,188.57 215.97,257.00 C212.14,275.42 208.22,293.65 207.26,297.50 L 205.50 304.50 L 197.00 305.16 C188.08,305.86 181.65,307.65 173.78,311.62 C169.33,313.87 167.00,314.54 167.00,313.57 ZM 218.51 307.01 C217.77,305.81 220.96,290.01 222.29,288.25 C223.94,286.09 226.54,286.87 230.34,290.67 C233.66,293.99 233.89,294.55 232.67,296.42 C231.94,297.57 230.02,299.20 228.42,300.06 C226.81,300.91 225.35,302.26 225.17,303.06 C224.35,306.66 219.92,309.30 218.51,307.01 ZM 252.88 267.18 C238.48,257.77 231.64,248.13 229.69,234.50 C227.98,222.53 232.51,206.60 240.84,195.31 C245.03,189.63 253.71,183.40 261.56,180.44 L 268.05 178.00 L 317.52 178.00 C344.74,178.00 367.00,178.24 367.00,178.54 C367.00,178.84 366.05,180.94 364.89,183.21 C361.87,189.13 353.48,197.02 346.50,200.50 L 340.50 203.50 L 304.50 204.04 C264.72,204.64 264.56,204.67 258.20,211.27 C255.03,214.56 252.04,222.48 252.01,227.66 C251.99,231.46 260.21,240.30 267.15,243.94 C275.52,248.33 279.00,251.63 279.00,255.19 C279.00,256.73 278.66,258.00 278.25,258.00 C277.84,258.00 274.80,260.47 271.50,263.49 C268.20,266.51 264.71,269.24 263.75,269.56 C262.79,269.88 262.00,270.55 262.00,271.07 C262.00,272.76 260.34,272.05 252.88,267.18 Z" fill="rgb(124,59,231)"/>
<path d="M 179.00 351.94 C178.18,351.50 176.71,350.90 175.75,350.60 C174.79,350.31 174.00,349.15 174.00,348.03 C174.00,345.72 172.82,345.47 170.07,347.19 C168.57,348.13 167.81,348.09 166.52,347.01 C164.38,345.24 165.30,341.28 168.56,338.21 C169.90,336.95 171.00,335.55 171.00,335.10 C171.00,334.64 173.81,333.00 177.25,331.44 C182.21,329.19 184.95,328.61 190.50,328.61 C196.83,328.61 197.95,328.93 202.17,331.94 C207.76,335.93 207.60,337.15 200.57,344.58 C198.06,347.25 196.00,349.96 196.00,350.61 C196.00,352.46 193.37,353.01 188.68,352.13 C186.30,351.69 183.49,351.64 182.43,352.03 C181.37,352.42 179.82,352.38 179.00,351.94 ZM 218.51 307.01 C217.77,305.81 220.96,290.01 222.29,288.25 C223.94,286.09 226.54,286.87 230.34,290.67 C233.66,293.99 233.89,294.55 232.67,296.42 C231.94,297.57 230.02,299.20 228.42,300.06 C226.81,300.91 225.35,302.26 225.17,303.06 C224.35,306.66 219.92,309.30 218.51,307.01 ZM 261.55 269.09 C261.24,268.58 259.30,267.89 257.23,267.54 C254.76,267.12 252.68,265.90 251.13,263.96 C249.84,262.34 248.45,261.22 248.04,261.48 C247.63,261.73 246.21,260.73 244.90,259.25 C243.09,257.22 242.99,256.92 244.50,258.03 C246.36,259.40 246.40,259.38 245.09,257.70 C244.31,256.72 243.12,256.12 242.43,256.39 C240.96,256.95 238.00,253.96 238.00,251.92 C238.00,251.13 236.63,249.20 234.95,247.61 C233.17,245.94 232.12,244.12 232.45,243.27 C232.76,242.47 232.28,239.05 231.40,235.66 C225.74,213.97 239.41,188.78 261.31,180.56 L 268.11 178.00 L 317.56 178.00 C344.75,178.00 367.00,178.24 367.00,178.54 C367.00,178.84 366.05,180.94 364.89,183.21 C361.87,189.13 353.48,197.02 346.50,200.50 L 340.50 203.50 L 304.50 204.04 C264.72,204.64 264.56,204.67 258.20,211.27 C256.11,213.44 254.37,216.69 253.46,220.10 C251.55,227.28 251.63,229.26 253.95,232.21 C255.33,233.97 255.59,235.01 254.84,235.76 C253.39,237.21 254.67,239.00 257.15,239.00 C258.27,239.00 260.39,239.84 261.85,240.87 C263.31,241.90 266.52,243.75 269.00,244.98 C275.43,248.18 279.00,251.82 279.00,255.19 C279.00,256.73 278.61,258.00 278.14,258.00 C277.66,258.00 276.20,259.07 274.89,260.38 C271.00,264.25 263.88,270.00 262.96,270.00 C262.50,270.00 261.86,269.59 261.55,269.09 ZM 181.94 257.89 C181.31,256.72 181.12,254.60 181.50,253.14 C181.88,251.69 182.53,247.12 182.94,243.00 C183.35,238.88 184.89,230.88 186.36,225.22 C187.83,219.57 189.45,212.37 189.95,209.22 C190.45,206.08 192.24,197.43 193.94,190.00 C199.15,167.13 200.85,158.57 200.36,157.77 C200.10,157.35 184.27,157.01 165.19,157.02 C134.32,157.04 122.19,157.66 114.36,159.62 C110.88,160.50 111.26,157.21 115.58,148.98 C122.64,135.54 135.85,123.98 148.67,120.02 C154.97,118.07 158.05,118.02 271.32,118.00 C335.22,117.99 388.06,117.98 388.75,117.99 C392.94,118.03 385.71,131.10 376.13,140.79 C368.88,148.13 362.53,152.21 353.56,155.30 C351.69,155.95 332.55,156.58 304.50,156.93 L 258.50 157.50 L 252.52 160.43 C245.44,163.90 238.53,170.57 234.83,177.50 C232.23,182.39 229.40,192.82 224.94,214.00 C223.73,219.77 222.41,224.73 222.02,225.00 C220.95,225.75 218.91,229.85 218.47,232.17 C217.96,234.78 216.12,237.00 214.44,237.00 C213.72,237.00 212.99,238.21 212.82,239.68 C212.55,241.94 211.07,243.12 203.57,247.08 C198.65,249.67 194.10,251.59 193.46,251.34 C191.94,250.76 186.29,255.51 185.49,258.04 C184.68,260.59 183.35,260.53 181.94,257.89 Z" fill="rgb(137,78,245)"/>
<path d="M 181.94 257.89 C181.31,256.72 181.12,254.60 181.50,253.14 C181.88,251.69 182.53,247.12 182.94,243.00 C183.35,238.88 184.89,230.88 186.36,225.22 C187.83,219.57 189.45,212.37 189.95,209.22 C190.45,206.08 192.24,197.43 193.94,190.00 C199.15,167.13 200.85,158.57 200.36,157.77 C200.10,157.35 184.27,157.01 165.19,157.02 C134.32,157.04 122.19,157.66 114.36,159.62 C110.88,160.50 111.26,157.21 115.58,148.98 C122.64,135.54 135.85,123.98 148.67,120.02 C154.97,118.07 158.05,118.02 271.32,118.00 C335.22,117.99 388.06,117.98 388.75,117.99 C392.94,118.03 385.71,131.10 376.13,140.79 C368.88,148.13 362.53,152.21 353.56,155.30 C351.69,155.95 332.55,156.58 304.50,156.93 L 258.50 157.50 L 252.52 160.43 C245.44,163.90 238.53,170.57 234.83,177.50 C232.23,182.39 229.40,192.82 224.94,214.00 C223.73,219.77 222.41,224.73 222.02,225.00 C220.95,225.75 218.91,229.85 218.47,232.17 C217.96,234.78 216.12,237.00 214.44,237.00 C213.72,237.00 212.99,238.21 212.82,239.68 C212.55,241.94 211.07,243.12 203.57,247.08 C198.65,249.67 194.10,251.59 193.46,251.34 C191.94,250.76 186.29,255.51 185.49,258.04 C184.68,260.59 183.35,260.53 181.94,257.89 ZM 234.21 245.76 C232.84,245.10 232.14,244.08 232.46,243.24 C232.76,242.46 232.28,239.05 231.40,235.66 C225.74,213.97 239.41,188.78 261.31,180.56 C267.79,178.12 269.09,178.00 288.31,178.00 C308.25,178.00 320.02,179.34 325.38,182.20 C327.43,183.30 327.43,183.33 324.98,184.29 C323.62,184.83 321.08,185.89 319.35,186.64 C317.62,187.39 315.94,188.00 315.62,188.00 C315.30,188.00 313.17,190.02 310.89,192.50 C308.22,195.40 305.90,197.00 304.37,197.00 C303.07,197.00 302.00,197.38 302.00,197.84 C302.00,199.11 297.82,200.75 292.63,201.53 C290.08,201.91 288.00,202.57 288.00,202.98 C288.00,203.39 283.61,203.97 278.25,204.25 C272.82,204.54 266.95,205.45 265.00,206.31 C259.30,208.81 255.07,213.99 253.35,220.61 C252.50,223.85 251.40,226.75 250.89,227.06 C250.39,227.38 249.87,229.54 249.74,231.88 C249.52,235.75 249.29,236.09 247.15,235.68 C245.24,235.32 244.53,235.87 243.39,238.62 C242.61,240.48 241.64,242.00 241.22,242.00 C240.81,242.00 240.03,242.98 239.49,244.19 C238.28,246.86 237.18,247.18 234.21,245.76 Z" fill="rgb(167,61,242)"/>
<path d="M 190.50 218.57 C190.22,217.71 189.81,216.37 189.57,215.61 C188.98,213.69 190.31,205.92 193.94,190.00 C199.15,167.15 200.85,158.57 200.36,157.77 C200.10,157.35 184.27,157.01 165.19,157.02 C134.32,157.04 122.19,157.66 114.36,159.62 C110.88,160.50 111.26,157.21 115.58,148.98 C122.65,135.52 135.85,123.98 148.71,120.01 C154.98,118.07 157.92,118.00 231.95,118.00 C305.18,118.00 324.00,118.41 324.00,120.01 C324.00,120.91 316.03,124.00 313.72,124.00 C312.77,124.00 312.00,124.45 312.00,125.00 C312.00,125.55 312.45,126.00 313.00,126.00 C315.36,126.00 313.66,128.25 309.25,130.97 C302.22,135.29 294.99,141.17 295.56,142.09 C296.23,143.17 293.33,144.59 288.75,145.41 C284.83,146.12 284.25,146.85 286.11,148.71 C287.57,150.17 286.38,152.00 283.97,152.00 C282.10,152.00 274.98,154.93 274.00,156.10 C273.73,156.43 270.12,156.96 266.00,157.27 C253.33,158.22 243.62,163.88 236.94,174.22 C234.76,177.59 232.31,182.57 231.51,185.29 C230.70,188.01 229.08,191.07 227.90,192.09 C226.72,193.11 225.46,195.40 225.10,197.18 C224.53,199.94 223.87,200.54 220.68,201.20 C215.36,202.31 211.25,204.65 210.50,206.99 C210.15,208.10 209.21,209.00 208.40,209.00 C207.60,209.00 206.68,209.68 206.36,210.50 C206.05,211.32 205.24,212.00 204.58,212.00 C203.92,212.00 202.50,212.79 201.44,213.76 C198.64,216.30 193.63,219.40 194.44,218.10 C195.43,216.49 194.39,216.76 192.57,218.57 C191.14,220.01 190.95,220.01 190.50,218.57 ZM 248.24 194.75 C247.69,194.06 246.93,192.48 246.55,191.24 C246.01,189.46 246.35,188.80 248.18,188.11 C250.03,187.42 250.73,187.66 251.63,189.31 C252.26,190.44 252.63,192.07 252.46,192.94 C252.29,193.80 252.12,194.84 252.08,195.25 C251.95,196.45 249.34,196.11 248.24,194.75 ZM 254.03 185.02 C253.05,184.41 253.24,183.94 254.80,183.11 C257.50,181.66 260.27,181.69 259.78,183.15 C259.24,184.78 255.57,185.97 254.03,185.02 Z" fill="rgb(194,63,232)"/>
<path d="M 200.62 167.75 C200.29,164.31 200.12,160.60 200.26,159.50 C200.50,157.54 199.83,157.49 166.50,157.21 C135.91,156.95 121.84,157.61 114.25,159.63 C110.88,160.53 111.31,157.10 115.58,148.98 C122.65,135.52 135.85,123.98 148.71,120.01 C154.81,118.12 157.97,118.00 200.45,118.00 C246.11,118.00 262.27,118.58 259.81,120.14 C258.85,120.75 259.04,120.99 260.50,121.06 C261.60,121.12 261.93,121.39 261.24,121.66 C260.55,121.94 260.24,122.58 260.55,123.09 C260.86,123.59 260.43,124.00 259.59,124.00 C258.76,124.00 257.61,124.87 257.04,125.93 C256.47,126.99 254.99,128.00 253.75,128.18 C252.51,128.36 251.50,129.01 251.50,129.63 C251.50,130.82 237.73,144.00 236.49,144.00 C236.10,144.00 233.63,145.80 231.00,148.00 C228.37,150.20 225.72,152.00 225.11,152.00 C224.50,152.00 224.00,152.45 224.00,153.00 C224.00,153.55 223.40,154.00 222.67,154.00 C220.95,154.00 217.00,158.22 217.00,160.07 C217.00,161.63 213.09,165.54 208.83,168.25 C207.36,169.18 205.86,170.86 205.51,171.97 C205.15,173.09 204.05,174.00 203.05,174.00 C201.55,174.00 201.13,172.90 200.62,167.75 Z" fill="rgb(222,69,223)"/>
<path d="M 112.00 158.00 C112.00,154.35 118.80,142.56 124.60,136.15 C131.50,128.53 140.38,122.58 148.71,120.01 C154.13,118.33 158.01,118.00 172.11,118.00 C181.40,118.00 189.00,118.23 189.00,118.51 C189.00,118.80 188.46,119.90 187.79,120.96 C186.81,122.54 186.91,123.24 188.37,124.86 C190.56,127.28 189.84,128.90 184.04,134.50 C181.76,136.70 178.33,140.03 176.40,141.90 C174.48,143.77 173.14,145.91 173.42,146.66 C173.74,147.47 172.29,149.23 169.85,151.00 C166.62,153.33 166.10,154.10 167.37,154.59 C171.96,156.35 167.22,157.00 149.75,157.02 C132.54,157.04 121.40,157.86 114.36,159.62 C112.41,160.11 112.00,159.83 112.00,158.00 Z" fill="rgb(246,73,180)"/>
</g>
</svg>